<svg width="366" height="88" viewBox="0 0 366 65" fill="none" xmlns="http://www.w3.org/2000/svg">
<path d="M2.7313 49.9255C2.4129 47.7365 2.2537 45.249 2.2537 42.463L2.3134 38.4034C2.3532 37.5278 2.3731 36.2144 2.3731 34.4632C2.3731 33.2692 2.3532 32.3936 2.3134 31.8364C2.3134 31.1996 2.2935 30.6424 2.2537 30.1648C2.2139 29.6474 2.1741 29.1897 2.1343 28.7917C1.9751 26.8813 1.8955 25.3888 1.8955 24.3142C1.8955 20.8118 2.5323 18.1651 3.8059 16.3741C4.8805 14.9413 6.4725 13.9463 8.5819 13.3891C10.6913 12.7921 12.9997 12.4936 15.5071 12.4936C16.6215 12.4936 17.4374 12.5135 17.9548 12.5533C20.7408 12.7125 23.3079 13.3294 25.6561 14.404C28.0043 15.4388 29.7953 17.0308 31.0291 19.18C32.7803 22.165 33.6559 25.4684 33.6559 29.0902C33.6559 32.513 32.9395 35.9159 31.5067 39.2989C30.1137 42.6819 28.263 45.5873 25.9546 48.0151C24.9994 49.0101 23.5666 50.0648 21.6562 51.1792C19.7458 52.2538 17.6762 53.1692 15.4474 53.9254C13.2186 54.6418 11.1888 55 9.358 55C5.4974 55 3.2885 53.3085 2.7313 49.9255ZM15.3877 41.4481C16.3827 41.4481 17.3777 40.9506 18.3727 39.9556C19.3677 38.9208 20.2433 37.7268 20.9995 36.3736C21.7557 34.9806 22.2333 33.8463 22.4323 32.9707C22.5119 32.6523 22.5517 32.2145 22.5517 31.6573C22.5517 30.1051 22.0144 28.7519 20.9398 27.5977C19.8652 26.4435 18.512 25.6873 16.8802 25.3291C16.0842 25.1699 15.5867 25.0903 15.3877 25.0903C14.4723 25.0903 13.8554 25.4087 13.537 26.0455C13.2186 26.6425 13.0594 27.538 13.0594 28.732L13.1191 31.7767L12.9997 33.508C12.8803 35.4184 12.8206 36.493 12.8206 36.7318C12.8206 39.876 13.6763 41.4481 15.3877 41.4481ZM39.1198 54.6418C37.7666 54.2438 36.8114 53.607 36.2542 52.7314C35.697 51.816 35.4184 50.6817 35.4184 49.3285C35.4184 47.7365 35.8363 45.5276 36.6721 42.7018L37.1497 40.9108C38.3437 35.896 40.0551 30.0454 42.2839 23.359C43.1595 20.7322 44.3735 18.7024 45.9257 17.2696C47.4778 15.797 49.5673 15.0209 52.1941 14.9413C53.826 14.9015 55.1593 15.3393 56.194 16.2547C57.2687 17.1701 58.0846 18.2646 58.6418 19.5382C59.2388 20.8118 59.8756 22.5033 60.5522 24.6127L61.2686 26.941L68.2534 46.5823C68.7311 47.8957 68.9699 48.9106 68.9699 49.627C68.9699 50.9404 68.353 52.0946 67.1191 53.0896C66.0446 53.9254 65.0297 54.3433 64.0745 54.3433C62.8407 54.3433 61.786 53.6866 60.9104 52.3732C60.592 51.9752 60.3134 51.418 60.0746 50.7016C59.8756 49.9852 59.7562 49.5474 59.7164 49.3882C59.398 48.3932 59.0995 47.5773 58.8208 46.9405C58.5422 46.3037 58.204 45.8062 57.806 45.448C57.7264 45.3684 56.9105 45.2689 55.3582 45.1495C53.806 45.0301 52.3732 44.9704 51.0599 44.9704C49.3883 44.9704 48.4331 45.0699 48.1943 45.2689C47.7963 45.6271 47.4978 46.1246 47.2988 46.7614C47.0997 47.3982 46.9007 48.2539 46.7018 49.3285C46.5028 50.3633 46.3038 51.1991 46.1047 51.8359C45.9455 52.4329 45.7068 52.9304 45.3884 53.3284C44.5128 54.4428 43.1993 55 41.4481 55C40.6123 55 39.8362 54.8806 39.1198 54.6418ZM54.1643 36.1945C53.3285 33.7269 52.8111 32.1349 52.612 31.4185L50.9404 36.7915L54.1643 36.1945ZM102.032 52.9702C100.639 54.3234 99.3251 55 98.0913 55C95.9023 55 94.1511 53.3483 92.8377 50.0449C91.5243 46.7017 90.5492 43.2391 89.9124 39.6571C89.8328 39.6969 89.2955 39.7964 88.3005 39.9556C87.5443 40.075 86.7881 40.2342 86.0319 40.4332C85.2757 40.5924 84.7981 40.7715 84.5991 40.9705C84.3603 41.2491 84.2011 41.8262 84.1215 42.7018C84.0419 43.5376 83.9822 44.1147 83.9424 44.4331C83.5444 46.0649 83.1663 47.3982 82.8081 48.433C82.4897 49.428 81.9922 50.3434 81.3156 51.1792C80.0818 52.6916 78.5893 53.4478 76.8381 53.4478C75.6839 53.4478 74.6093 53.0896 73.6143 52.3732C72.6591 51.617 71.9427 50.6021 71.4651 49.3285C70.9875 48.0549 70.7487 46.4629 70.7487 44.5525C70.7487 43.5177 70.8283 42.3436 70.9875 41.0302C71.1467 39.677 71.3258 38.3835 71.5248 37.1497C71.8432 34.7219 72.0422 33.1299 72.1218 32.3737C72.2014 31.4185 72.2412 29.926 72.2412 27.8962V23.4784C72.2412 20.1352 72.4004 17.5084 72.7188 15.598C73.077 13.2896 74.2511 11.618 76.2411 10.5832C78.2709 9.5086 80.7584 8.9713 83.7036 8.9713C86.41 8.9713 89.1562 9.3494 91.9422 10.1056C94.768 10.8618 96.957 11.7573 98.5092 12.7921C100.459 14.0657 101.892 15.5582 102.808 17.2696C103.763 18.981 104.24 20.8118 104.24 22.762C104.24 24.7918 103.743 26.8415 102.748 28.9111C101.793 30.9409 100.42 32.7717 98.6286 34.4035C102.25 39.7765 104.061 44.2341 104.061 47.7763C104.061 49.8857 103.385 51.617 102.032 52.9702ZM83.6439 32.1946C86.5493 31.0404 88.7383 29.9459 90.2109 28.9111C91.6835 27.8763 92.4198 26.7619 92.4198 25.5679C92.4198 24.4933 91.8029 23.558 90.5691 22.762C89.3751 21.9262 88.0219 21.5083 86.5095 21.5083C85.2359 21.5083 84.3404 21.5879 83.823 21.7471C83.3056 21.8665 82.9275 22.3242 82.6887 23.1202C82.5693 23.5182 82.5096 24.0356 82.5096 24.6724C82.5096 25.548 82.7285 27.1201 83.1663 29.3887C83.4449 30.5827 83.6041 31.518 83.6439 32.1946ZM109.722 54.6418C108.369 54.2438 107.414 53.607 106.856 52.7314C106.299 51.816 106.021 50.6817 106.021 49.3285C106.021 47.7365 106.439 45.5276 107.274 42.7018L107.752 40.9108C108.946 35.896 110.657 30.0454 112.886 23.359C113.762 20.7322 114.976 18.7024 116.528 17.2696C118.08 15.797 120.17 15.0209 122.796 14.9413C124.428 14.9015 125.761 15.3393 126.796 16.2547C127.871 17.1701 128.687 18.2646 129.244 19.5382C129.841 20.8118 130.478 22.5033 131.154 24.6127L131.871 26.941L138.856 46.5823C139.333 47.8957 139.572 48.9106 139.572 49.627C139.572 50.9404 138.955 52.0946 137.721 53.0896C136.647 53.9254 135.632 54.3433 134.677 54.3433C133.443 54.3433 132.388 53.6866 131.513 52.3732C131.194 51.9752 130.916 51.418 130.677 50.7016C130.478 49.9852 130.358 49.5474 130.319 49.3882C130 48.3932 129.702 47.5773 129.423 46.9405C129.144 46.3037 128.806 45.8062 128.408 45.448C128.329 45.3684 127.513 45.2689 125.96 45.1495C124.408 45.0301 122.975 44.9704 121.662 44.9704C119.99 44.9704 119.035 45.0699 118.796 45.2689C118.398 45.6271 118.1 46.1246 117.901 46.7614C117.702 47.3982 117.503 48.2539 117.304 49.3285C117.105 50.3633 116.906 51.1991 116.707 51.8359C116.548 52.4329 116.309 52.9304 115.991 53.3284C115.115 54.4428 113.802 55 112.05 55C111.215 55 110.438 54.8806 109.722 54.6418ZM124.767 36.1945C123.931 33.7269 123.413 32.1349 123.214 31.4185L121.543 36.7915L124.767 36.1945ZM154.437 53.3284C154.119 53.9254 153.641 54.3831 153.004 54.7015C152.407 55.0199 151.731 55.1791 150.974 55.1791C150.059 55.1791 149.124 54.9403 148.168 54.4627C147.253 53.9453 146.497 53.2488 145.9 52.3732C144.945 50.9006 144.467 48.632 144.467 45.5674C144.467 44.3734 144.547 42.7018 144.706 40.5526C144.746 39.9954 144.785 39.3586 144.825 38.6422C144.865 37.886 144.885 37.09 144.885 36.2542C144.885 35.4582 144.865 34.8811 144.825 34.5229C144.706 33.3687 144.387 32.2941 143.87 31.2991C143.392 30.2643 142.656 28.9509 141.661 27.3589C140.746 25.8067 140.069 24.6127 139.631 23.7769C139.194 22.9013 138.855 21.966 138.616 20.971C138.457 20.374 138.378 19.7372 138.378 19.0606C138.378 17.6676 138.756 16.4935 139.512 15.5383C140.268 14.5831 141.283 14.1055 142.557 14.1055C143.392 14.1055 144.288 14.3443 145.243 14.8219C146.557 15.4985 147.571 16.4736 148.288 17.7472C149.004 18.981 149.721 20.6725 150.437 22.8217C151.074 24.5729 151.492 25.6873 151.691 26.1649C151.969 25.7271 152.407 24.9112 153.004 23.7172C154.278 21.2098 155.472 19.2198 156.586 17.7472C157.701 16.2348 158.994 15.4786 160.467 15.4786C161.064 15.4786 161.661 15.6179 162.258 15.8965C163.531 16.4935 164.168 17.588 164.168 19.18C164.168 20.573 163.591 22.5232 162.437 25.0306C161.641 26.6624 160.367 28.7917 158.616 31.4185C157.82 32.5727 157.283 33.508 157.004 34.2244C156.725 34.901 156.586 35.6771 156.586 36.5527C156.586 36.8711 156.666 37.7865 156.825 39.2989C157.024 41.6073 157.123 43.5177 157.123 45.0301C157.123 46.9007 156.924 48.5126 156.526 49.8658C156.128 51.219 155.432 52.3732 154.437 53.3284ZM168.781 54.6418C167.428 54.2438 166.472 53.607 165.915 52.7314C165.358 51.816 165.079 50.6817 165.079 49.3285C165.079 47.7365 165.497 45.5276 166.333 42.7018L166.811 40.9108C168.005 35.896 169.716 30.0454 171.945 23.359C172.82 20.7322 174.034 18.7024 175.587 17.2696C177.139 15.797 179.228 15.0209 181.855 14.9413C183.487 14.9015 184.82 15.3393 185.855 16.2547C186.93 17.1701 187.745 18.2646 188.303 19.5382C188.9 20.8118 189.536 22.5033 190.213 24.6127L190.929 26.941L197.914 46.5823C198.392 47.8957 198.631 48.9106 198.631 49.627C198.631 50.9404 198.014 52.0946 196.78 53.0896C195.705 53.9254 194.691 54.3433 193.735 54.3433C192.502 54.3433 191.447 53.6866 190.571 52.3732C190.253 51.9752 189.974 51.418 189.735 50.7016C189.536 49.9852 189.417 49.5474 189.377 49.3882C189.059 48.3932 188.76 47.5773 188.482 46.9405C188.203 46.3037 187.865 45.8062 187.467 45.448C187.387 45.3684 186.571 45.2689 185.019 45.1495C183.467 45.0301 182.034 44.9704 180.721 44.9704C179.049 44.9704 178.094 45.0699 177.855 45.2689C177.457 45.6271 177.159 46.1246 176.96 46.7614C176.761 47.3982 176.562 48.2539 176.363 49.3285C176.164 50.3633 175.965 51.1991 175.766 51.8359C175.606 52.4329 175.368 52.9304 175.049 53.3284C174.174 54.4428 172.86 55 171.109 55C170.273 55 169.497 54.8806 168.781 54.6418ZM183.825 36.1945C182.989 33.7269 182.472 32.1349 182.273 31.4185L180.601 36.7915L183.825 36.1945ZM224.409 54.6418C222.26 54.2438 220.529 53.8458 219.215 53.4478C217.902 53.01 216.887 52.2737 216.17 51.2389C215.613 50.4429 215.335 49.627 215.335 48.7912C215.335 47.7564 215.772 46.9007 216.648 46.2241C217.563 45.5077 218.658 45.1694 219.932 45.2092C220.688 45.2092 221.723 45.4679 223.036 45.9853C224.708 46.5425 225.921 46.8211 226.678 46.8211C227.911 46.8211 228.867 46.2639 229.543 45.1495C229.901 44.5525 230.081 44.0152 230.081 43.5376C230.081 42.5824 229.623 41.7466 228.707 41.0302C227.792 40.274 226.658 39.5576 225.305 38.881C219.812 36.2144 217.066 32.1349 217.066 26.6425C217.066 25.8465 217.126 25.0306 217.245 24.1948C217.723 20.8118 219.076 17.8865 221.305 15.4189C223.573 12.9115 226.359 11.1802 229.663 10.225C231.334 9.7076 233.026 9.4489 234.737 9.4489C236.847 9.4489 238.578 9.8867 239.931 10.7623C240.608 11.1603 241.165 11.7374 241.603 12.4936C242.04 13.21 242.259 13.9264 242.259 14.6428C242.259 15.2398 242.06 15.797 241.662 16.3144C241.304 16.792 240.747 17.1502 239.991 17.389C237.404 18.185 235.115 19.3989 233.125 21.0307C231.175 22.6625 230.2 24.4137 230.2 26.2843C230.2 28.1151 231.195 29.8663 233.185 31.5379C234.1 32.2941 234.916 32.911 235.633 33.3886C236.986 34.4234 238.041 35.3189 238.797 36.0751C239.553 36.7915 240.19 37.7069 240.707 38.8213C241.463 40.4531 241.841 42.1645 241.841 43.9555C241.841 45.5475 241.543 47.0599 240.946 48.4927C239.991 50.8409 238.439 52.5125 236.289 53.5075C234.18 54.5025 231.732 55 228.946 55C227.354 55 225.842 54.8806 224.409 54.6418ZM257.987 55C254.843 55.0398 253.271 52.6717 253.271 47.8957L253.33 46.4032C253.37 44.8112 253.43 43.4381 253.51 42.2839C253.589 41.0899 253.649 40.1148 253.689 39.3586C253.967 35.4582 254.107 32.0752 254.107 29.2096C254.107 27.9758 254.087 27.0405 254.047 26.4037C252.853 26.4833 251.858 26.5231 251.062 26.5231C249.51 26.5231 248.176 26.3241 247.062 25.9261C245.948 25.4883 245.112 24.6923 244.555 23.5381C244.236 22.9411 244.077 22.2446 244.077 21.4486C244.077 20.573 244.296 19.777 244.734 19.0606C245.171 18.3044 245.808 17.7273 246.644 17.3293C247.321 17.0109 248.296 16.8517 249.569 16.8517C250.525 16.8517 252.256 17.0308 254.763 17.389C255.878 17.5482 256.912 17.6676 257.868 17.7472C258.345 17.787 259.082 17.8069 260.077 17.8069C262.266 17.8069 263.937 17.8666 265.091 17.986C266.285 18.0656 267.44 18.3641 268.554 18.8815C269.31 19.2397 269.947 19.7969 270.464 20.5531C270.982 21.2695 271.24 22.0257 271.24 22.8217C271.24 23.5779 271.002 24.2545 270.524 24.8515C269.648 25.9659 267.718 26.5231 264.733 26.5231L261.987 26.4634L262.285 28.3141C262.763 31.2991 263.141 33.9458 263.42 36.2542C263.698 38.5228 263.838 40.8511 263.838 43.2391C263.838 51.0399 261.887 54.9602 257.987 55ZM291.104 54.0448C289.313 54.6816 287.522 55 285.731 55C283.781 55 281.97 54.6418 280.299 53.9254C278.468 53.1294 277.095 52.015 276.179 50.5822C275.304 49.1096 274.508 47.1395 273.791 44.6719C272.677 40.8909 272.12 37.4482 272.12 34.3438C272.12 30.921 272.816 27.9559 274.209 25.4485C275.642 22.9411 277.99 21.1103 281.254 19.9561C283.045 19.2795 284.935 18.9412 286.925 18.9412C290.069 18.9412 292.776 19.8765 295.044 21.7471C297.353 23.6177 298.825 26.2246 299.462 29.5678C299.86 31.7568 300.059 33.9259 300.059 36.0751C300.059 40.2143 299.343 43.9555 297.91 47.2987C296.517 50.6021 294.248 52.8508 291.104 54.0448ZM283.761 45.9853C284.836 47.0599 285.89 47.5972 286.925 47.5972C287.88 47.5972 288.716 47.1992 289.433 46.4032C290.149 45.5674 290.686 44.5127 291.045 43.2391C291.602 41.0103 291.88 38.7815 291.88 36.5527C291.88 33.0901 291.104 30.921 289.552 30.0454C289.074 29.8066 288.597 29.6872 288.119 29.6872C287.005 29.6872 285.871 30.1449 284.716 31.0603C283.602 31.9359 282.886 32.8513 282.567 33.8065C282.129 35.1199 281.91 36.8512 281.91 39.0004C281.91 40.5128 282.05 41.9058 282.328 43.1794C282.647 44.4132 283.124 45.3485 283.761 45.9853ZM333.136 52.9702C331.743 54.3234 330.429 55 329.196 55C327.007 55 325.255 53.3483 323.942 50.0449C322.629 46.7017 321.654 43.2391 321.017 39.6571C320.937 39.6969 320.4 39.7964 319.405 39.9556C318.649 40.075 317.892 40.2342 317.136 40.4332C316.38 40.5924 315.902 40.7715 315.703 40.9705C315.465 41.2491 315.305 41.8262 315.226 42.7018C315.146 43.5376 315.087 44.1147 315.047 44.4331C314.649 46.0649 314.271 47.3982 313.912 48.433C313.594 49.428 313.097 50.3434 312.42 51.1792C311.186 52.6916 309.694 53.4478 307.942 53.4478C306.788 53.4478 305.714 53.0896 304.719 52.3732C303.763 51.617 303.047 50.6021 302.569 49.3285C302.092 48.0549 301.853 46.4629 301.853 44.5525C301.853 43.5177 301.933 42.3436 302.092 41.0302C302.251 39.677 302.43 38.3835 302.629 37.1497C302.948 34.7219 303.147 33.1299 303.226 32.3737C303.306 31.4185 303.346 29.926 303.346 27.8962V23.4784C303.346 20.1352 303.505 17.5084 303.823 15.598C304.181 13.2896 305.355 11.618 307.345 10.5832C309.375 9.5086 311.863 8.9713 314.808 8.9713C317.514 8.9713 320.261 9.3494 323.047 10.1056C325.872 10.8618 328.061 11.7573 329.614 12.7921C331.564 14.0657 332.997 15.5582 333.912 17.2696C334.867 18.981 335.345 20.8118 335.345 22.762C335.345 24.7918 334.847 26.8415 333.852 28.9111C332.897 30.9409 331.524 32.7717 329.733 34.4035C333.355 39.7765 335.166 44.2341 335.166 47.7763C335.166 49.8857 334.489 51.617 333.136 52.9702ZM314.748 32.1946C317.654 31.0404 319.843 29.9459 321.315 28.9111C322.788 27.8763 323.524 26.7619 323.524 25.5679C323.524 24.4933 322.907 23.558 321.673 22.762C320.479 21.9262 319.126 21.5083 317.614 21.5083C316.34 21.5083 315.445 21.5879 314.927 21.7471C314.41 21.8665 314.032 22.3242 313.793 23.1202C313.674 23.5182 313.614 24.0356 313.614 24.6724C313.614 25.548 313.833 27.1201 314.271 29.3887C314.549 30.5827 314.708 31.518 314.748 32.1946ZM346.14 54.8806C345.543 54.8806 345.085 54.9005 344.767 54.9403L343.214 55C341.105 55 339.573 54.5224 338.617 53.5672C337.622 52.5722 337.125 51.02 337.125 48.9106C337.125 48.2738 337.165 47.3982 337.244 46.2838C337.324 45.647 337.364 45.1893 337.364 44.9107L337.841 34.702C338.08 29.3688 338.239 25.3689 338.319 22.7023C338.359 22.2247 338.359 21.8068 338.319 21.4486C338.319 21.0506 338.319 20.7123 338.319 20.4337V19.18C338.319 17.5084 338.478 16.2348 338.797 15.3592C339.553 13.1702 342.14 12.0757 346.558 12.0757C347.99 12.0757 349.523 12.1752 351.154 12.3742C352.826 12.5732 354.239 12.7722 355.393 12.9712C356.667 13.1702 357.682 13.409 358.438 13.6876C359.234 13.9264 359.891 14.3841 360.408 15.0607C360.965 15.6975 361.244 16.6129 361.244 17.8069C361.244 18.8019 360.985 19.6974 360.468 20.4934C359.95 21.2496 359.234 21.8068 358.318 22.165C357.841 22.364 357.244 22.4635 356.527 22.4635C356.05 22.4635 355.333 22.3839 354.378 22.2247C353.503 22.0655 352.826 21.9859 352.348 21.9859C352.07 21.9859 351.692 22.0257 351.214 22.1053C350.697 22.1849 350.199 22.5232 349.722 23.1202C349.244 23.7172 349.005 24.354 349.005 25.0306C349.005 25.7072 349.304 26.2644 349.901 26.7022C350.378 27.0206 351.115 27.1798 352.11 27.1798C352.547 27.1798 353.164 27.14 353.96 27.0604L355.811 27.0007C356.527 27.0007 357.105 27.0803 357.542 27.2395C358.537 27.6375 359.254 28.1549 359.692 28.7917C360.129 29.3887 360.388 30.2245 360.468 31.2991C360.507 31.5379 360.527 31.916 360.527 32.4334C360.527 33.6274 360.289 34.702 359.811 35.6572C359.333 36.5726 358.577 37.1895 357.542 37.5079C357.144 37.5875 356.806 37.6273 356.527 37.6273C356.169 37.6273 355.751 37.5875 355.274 37.5079C354.836 37.4283 354.518 37.3686 354.319 37.3288C353.523 37.1298 352.786 37.0303 352.11 37.0303C351.194 37.0303 350.478 37.289 349.96 37.8064C349.284 38.4432 348.946 39.0601 348.946 39.6571C348.946 40.5725 349.602 41.3287 350.916 41.9257C352.229 42.5227 353.483 42.861 354.677 42.9406C355.115 42.9804 355.513 43.0003 355.871 43.0003C356.229 42.9605 356.527 42.9406 356.766 42.9406C357.124 42.9008 357.662 42.8809 358.378 42.8809C360.368 42.8809 361.861 43.2391 362.856 43.9555C363.811 44.7117 364.288 45.9256 364.288 47.5972C364.288 48.8708 364.089 50.0051 363.691 51.0001C363.134 52.3533 362.358 53.2687 361.363 53.7463C360.368 54.1841 358.975 54.4627 357.184 54.5821C355.95 54.6617 354.876 54.7214 353.96 54.7612C353.045 54.7612 352.289 54.7612 351.692 54.7612C350.458 54.7612 348.607 54.801 346.14 54.8806Z" fill="#FD841F"/>
<path d="M1.7313 48.9255C1.4129 46.7365 1.2537 44.249 1.2537 41.463L1.3134 37.4034C1.3532 36.5278 1.3731 35.2144 1.3731 33.4632C1.3731 32.2692 1.3532 31.3936 1.3134 30.8364C1.3134 30.1996 1.2935 29.6424 1.2537 29.1648C1.2139 28.6474 1.1741 28.1897 1.1343 27.7917C0.9751 25.8813 0.8955 24.3888 0.8955 23.3142C0.8955 19.8118 1.5323 17.1651 2.8059 15.3741C3.8805 13.9413 5.4725 12.9463 7.5819 12.3891C9.6913 11.7921 11.9997 11.4936 14.5071 11.4936C15.6215 11.4936 16.4374 11.5135 16.9548 11.5533C19.7408 11.7125 22.3079 12.3294 24.6561 13.404C27.0043 14.4388 28.7953 16.0308 30.0291 18.18C31.7803 21.165 32.6559 24.4684 32.6559 28.0902C32.6559 31.513 31.9395 34.9159 30.5067 38.2989C29.1137 41.6819 27.263 44.5873 24.9546 47.0151C23.9994 48.0101 22.5666 49.0648 20.6562 50.1792C18.7458 51.2538 16.6762 52.1692 14.4474 52.9254C12.2186 53.6418 10.1888 54 8.358 54C4.4974 54 2.2885 52.3085 1.7313 48.9255ZM14.3877 40.4481C15.3827 40.4481 16.3777 39.9506 17.3727 38.9556C18.3677 37.9208 19.2433 36.7268 19.9995 35.3736C20.7557 33.9806 21.2333 32.8463 21.4323 31.9707C21.5119 31.6523 21.5517 31.2145 21.5517 30.6573C21.5517 29.1051 21.0144 27.7519 19.9398 26.5977C18.8652 25.4435 17.512 24.6873 15.8802 24.3291C15.0842 24.1699 14.5867 24.0903 14.3877 24.0903C13.4723 24.0903 12.8554 24.4087 12.537 25.0455C12.2186 25.6425 12.0594 26.538 12.0594 27.732L12.1191 30.7767L11.9997 32.508C11.8803 34.4184 11.8206 35.493 11.8206 35.7318C11.8206 38.876 12.6763 40.4481 14.3877 40.4481ZM38.1198 53.6418C36.7666 53.2438 35.8114 52.607 35.2542 51.7314C34.697 50.816 34.4184 49.6817 34.4184 48.3285C34.4184 46.7365 34.8363 44.5276 35.6721 41.7018L36.1497 39.9108C37.3437 34.896 39.0551 29.0454 41.2839 22.359C42.1595 19.7322 43.3735 17.7024 44.9257 16.2696C46.4778 14.797 48.5673 14.0209 51.1941 13.9413C52.826 13.9015 54.1593 14.3393 55.194 15.2547C56.2687 16.1701 57.0846 17.2646 57.6418 18.5382C58.2388 19.8118 58.8756 21.5033 59.5522 23.6127L60.2686 25.941L67.2534 45.5823C67.7311 46.8957 67.9699 47.9106 67.9699 48.627C67.9699 49.9404 67.353 51.0946 66.1191 52.0896C65.0446 52.9254 64.0297 53.3433 63.0745 53.3433C61.8407 53.3433 60.786 52.6866 59.9104 51.3732C59.592 50.9752 59.3134 50.418 59.0746 49.7016C58.8756 48.9852 58.7562 48.5474 58.7164 48.3882C58.398 47.3932 58.0995 46.5773 57.8208 45.9405C57.5422 45.3037 57.204 44.8062 56.806 44.448C56.7264 44.3684 55.9105 44.2689 54.3582 44.1495C52.806 44.0301 51.3732 43.9704 50.0599 43.9704C48.3883 43.9704 47.4331 44.0699 47.1943 44.2689C46.7963 44.6271 46.4978 45.1246 46.2988 45.7614C46.0997 46.3982 45.9007 47.2539 45.7018 48.3285C45.5028 49.3633 45.3038 50.1991 45.1047 50.8359C44.9455 51.4329 44.7068 51.9304 44.3884 52.3284C43.5128 53.4428 42.1993 54 40.4481 54C39.6123 54 38.8362 53.8806 38.1198 53.6418ZM53.1643 35.1945C52.3285 32.7269 51.8111 31.1349 51.612 30.4185L49.9404 35.7915L53.1643 35.1945ZM101.032 51.9702C99.6385 53.3234 98.3251 54 97.0913 54C94.9023 54 93.1511 52.3483 91.8377 49.0449C90.5243 45.7017 89.5492 42.2391 88.9124 38.6571C88.8328 38.6969 88.2955 38.7964 87.3005 38.9556C86.5443 39.075 85.7881 39.2342 85.0319 39.4332C84.2757 39.5924 83.7981 39.7715 83.5991 39.9705C83.3603 40.2491 83.2011 40.8262 83.1215 41.7018C83.0419 42.5376 82.9822 43.1147 82.9424 43.4331C82.5444 45.0649 82.1663 46.3982 81.8081 47.433C81.4897 48.428 80.9922 49.3434 80.3156 50.1792C79.0818 51.6916 77.5893 52.4478 75.8381 52.4478C74.6839 52.4478 73.6093 52.0896 72.6143 51.3732C71.6591 50.617 70.9427 49.6021 70.4651 48.3285C69.9875 47.0549 69.7487 45.4629 69.7487 43.5525C69.7487 42.5177 69.8283 41.3436 69.9875 40.0302C70.1467 38.677 70.3258 37.3835 70.5248 36.1497C70.8432 33.7219 71.0422 32.1299 71.1218 31.3737C71.2014 30.4185 71.2412 28.926 71.2412 26.8962V22.4784C71.2412 19.1352 71.4004 16.5084 71.7188 14.598C72.077 12.2896 73.2511 10.618 75.2411 9.5832C77.2709 8.5086 79.7584 7.9713 82.7036 7.9713C85.41 7.9713 88.1562 8.3494 90.9422 9.1056C93.768 9.8618 95.957 10.7573 97.5092 11.7921C99.4594 13.0657 100.892 14.5582 101.808 16.2696C102.763 17.981 103.24 19.8118 103.24 21.762C103.24 23.7918 102.743 25.8415 101.748 27.9111C100.793 29.9409 99.4196 31.7717 97.6286 33.4035C101.25 38.7765 103.061 43.2341 103.061 46.7763C103.061 48.8857 102.385 50.617 101.032 51.9702ZM82.6439 31.1946C85.5493 30.0404 87.7383 28.9459 89.2109 27.9111C90.6835 26.8763 91.4198 25.7619 91.4198 24.5679C91.4198 23.4933 90.8029 22.558 89.5691 21.762C88.3751 20.9262 87.0219 20.5083 85.5095 20.5083C84.2359 20.5083 83.3404 20.5879 82.823 20.7471C82.3056 20.8665 81.9275 21.3242 81.6887 22.1202C81.5693 22.5182 81.5096 23.0356 81.5096 23.6724C81.5096 24.548 81.7285 26.1201 82.1663 28.3887C82.4449 29.5827 82.6041 30.518 82.6439 31.1946ZM108.722 53.6418C107.369 53.2438 106.414 52.607 105.856 51.7314C105.299 50.816 105.021 49.6817 105.021 48.3285C105.021 46.7365 105.439 44.5276 106.274 41.7018L106.752 39.9108C107.946 34.896 109.657 29.0454 111.886 22.359C112.762 19.7322 113.976 17.7024 115.528 16.2696C117.08 14.797 119.17 14.0209 121.796 13.9413C123.428 13.9015 124.761 14.3393 125.796 15.2547C126.871 16.1701 127.687 17.2646 128.244 18.5382C128.841 19.8118 129.478 21.5033 130.154 23.6127L130.871 25.941L137.856 45.5823C138.333 46.8957 138.572 47.9106 138.572 48.627C138.572 49.9404 137.955 51.0946 136.721 52.0896C135.647 52.9254 134.632 53.3433 133.677 53.3433C132.443 53.3433 131.388 52.6866 130.513 51.3732C130.194 50.9752 129.916 50.418 129.677 49.7016C129.478 48.9852 129.358 48.5474 129.319 48.3882C129 47.3932 128.702 46.5773 128.423 45.9405C128.144 45.3037 127.806 44.8062 127.408 44.448C127.329 44.3684 126.513 44.2689 124.96 44.1495C123.408 44.0301 121.975 43.9704 120.662 43.9704C118.99 43.9704 118.035 44.0699 117.796 44.2689C117.398 44.6271 117.1 45.1246 116.901 45.7614C116.702 46.3982 116.503 47.2539 116.304 48.3285C116.105 49.3633 115.906 50.1991 115.707 50.8359C115.548 51.4329 115.309 51.9304 114.991 52.3284C114.115 53.4428 112.802 54 111.05 54C110.215 54 109.438 53.8806 108.722 53.6418ZM123.767 35.1945C122.931 32.7269 122.413 31.1349 122.214 30.4185L120.543 35.7915L123.767 35.1945ZM153.437 52.3284C153.119 52.9254 152.641 53.3831 152.004 53.7015C151.407 54.0199 150.731 54.1791 149.974 54.1791C149.059 54.1791 148.124 53.9403 147.168 53.4627C146.253 52.9453 145.497 52.2488 144.9 51.3732C143.945 49.9006 143.467 47.632 143.467 44.5674C143.467 43.3734 143.547 41.7018 143.706 39.5526C143.746 38.9954 143.785 38.3586 143.825 37.6422C143.865 36.886 143.885 36.09 143.885 35.2542C143.885 34.4582 143.865 33.8811 143.825 33.5229C143.706 32.3687 143.387 31.2941 142.87 30.2991C142.392 29.2643 141.656 27.9509 140.661 26.3589C139.746 24.8067 139.069 23.6127 138.631 22.7769C138.194 21.9013 137.855 20.966 137.616 19.971C137.457 19.374 137.378 18.7372 137.378 18.0606C137.378 16.6676 137.756 15.4935 138.512 14.5383C139.268 13.5831 140.283 13.1055 141.557 13.1055C142.392 13.1055 143.288 13.3443 144.243 13.8219C145.557 14.4985 146.571 15.4736 147.288 16.7472C148.004 17.981 148.721 19.6725 149.437 21.8217C150.074 23.5729 150.492 24.6873 150.691 25.1649C150.969 24.7271 151.407 23.9112 152.004 22.7172C153.278 20.2098 154.472 18.2198 155.586 16.7472C156.701 15.2348 157.994 14.4786 159.467 14.4786C160.064 14.4786 160.661 14.6179 161.258 14.8965C162.531 15.4935 163.168 16.588 163.168 18.18C163.168 19.573 162.591 21.5232 161.437 24.0306C160.641 25.6624 159.367 27.7917 157.616 30.4185C156.82 31.5727 156.283 32.508 156.004 33.2244C155.725 33.901 155.586 34.6771 155.586 35.5527C155.586 35.8711 155.666 36.7865 155.825 38.2989C156.024 40.6073 156.123 42.5177 156.123 44.0301C156.123 45.9007 155.924 47.5126 155.526 48.8658C155.128 50.219 154.432 51.3732 153.437 52.3284ZM167.781 53.6418C166.428 53.2438 165.472 52.607 164.915 51.7314C164.358 50.816 164.079 49.6817 164.079 48.3285C164.079 46.7365 164.497 44.5276 165.333 41.7018L165.811 39.9108C167.005 34.896 168.716 29.0454 170.945 22.359C171.82 19.7322 173.034 17.7024 174.587 16.2696C176.139 14.797 178.228 14.0209 180.855 13.9413C182.487 13.9015 183.82 14.3393 184.855 15.2547C185.93 16.1701 186.745 17.2646 187.303 18.5382C187.9 19.8118 188.536 21.5033 189.213 23.6127L189.929 25.941L196.914 45.5823C197.392 46.8957 197.631 47.9106 197.631 48.627C197.631 49.9404 197.014 51.0946 195.78 52.0896C194.705 52.9254 193.691 53.3433 192.735 53.3433C191.502 53.3433 190.447 52.6866 189.571 51.3732C189.253 50.9752 188.974 50.418 188.735 49.7016C188.536 48.9852 188.417 48.5474 188.377 48.3882C188.059 47.3932 187.76 46.5773 187.482 45.9405C187.203 45.3037 186.865 44.8062 186.467 44.448C186.387 44.3684 185.571 44.2689 184.019 44.1495C182.467 44.0301 181.034 43.9704 179.721 43.9704C178.049 43.9704 177.094 44.0699 176.855 44.2689C176.457 44.6271 176.159 45.1246 175.96 45.7614C175.761 46.3982 175.562 47.2539 175.363 48.3285C175.164 49.3633 174.965 50.1991 174.766 50.8359C174.606 51.4329 174.368 51.9304 174.049 52.3284C173.174 53.4428 171.86 54 170.109 54C169.273 54 168.497 53.8806 167.781 53.6418ZM182.825 35.1945C181.989 32.7269 181.472 31.1349 181.273 30.4185L179.601 35.7915L182.825 35.1945ZM223.409 53.6418C221.26 53.2438 219.529 52.8458 218.215 52.4478C216.902 52.01 215.887 51.2737 215.17 50.2389C214.613 49.4429 214.335 48.627 214.335 47.7912C214.335 46.7564 214.772 45.9007 215.648 45.2241C216.563 44.5077 217.658 44.1694 218.932 44.2092C219.688 44.2092 220.723 44.4679 222.036 44.9853C223.708 45.5425 224.921 45.8211 225.678 45.8211C226.911 45.8211 227.867 45.2639 228.543 44.1495C228.901 43.5525 229.081 43.0152 229.081 42.5376C229.081 41.5824 228.623 40.7466 227.707 40.0302C226.792 39.274 225.658 38.5576 224.305 37.881C218.812 35.2144 216.066 31.1349 216.066 25.6425C216.066 24.8465 216.126 24.0306 216.245 23.1948C216.723 19.8118 218.076 16.8865 220.305 14.4189C222.573 11.9115 225.359 10.1802 228.663 9.225C230.334 8.7076 232.026 8.4489 233.737 8.4489C235.847 8.4489 237.578 8.8867 238.931 9.7623C239.608 10.1603 240.165 10.7374 240.603 11.4936C241.04 12.21 241.259 12.9264 241.259 13.6428C241.259 14.2398 241.06 14.797 240.662 15.3144C240.304 15.792 239.747 16.1502 238.991 16.389C236.404 17.185 234.115 18.3989 232.125 20.0307C230.175 21.6625 229.2 23.4137 229.2 25.2843C229.2 27.1151 230.195 28.8663 232.185 30.5379C233.1 31.2941 233.916 31.911 234.633 32.3886C235.986 33.4234 237.041 34.3189 237.797 35.0751C238.553 35.7915 239.19 36.7069 239.707 37.8213C240.463 39.4531 240.841 41.1645 240.841 42.9555C240.841 44.5475 240.543 46.0599 239.946 47.4927C238.991 49.8409 237.439 51.5125 235.289 52.5075C233.18 53.5025 230.732 54 227.946 54C226.354 54 224.842 53.8806 223.409 53.6418ZM256.987 54C253.843 54.0398 252.271 51.6717 252.271 46.8957L252.33 45.4032C252.37 43.8112 252.43 42.4381 252.51 41.2839C252.589 40.0899 252.649 39.1148 252.689 38.3586C252.967 34.4582 253.107 31.0752 253.107 28.2096C253.107 26.9758 253.087 26.0405 253.047 25.4037C251.853 25.4833 250.858 25.5231 250.062 25.5231C248.51 25.5231 247.176 25.3241 246.062 24.9261C244.948 24.4883 244.112 23.6923 243.555 22.5381C243.236 21.9411 243.077 21.2446 243.077 20.4486C243.077 19.573 243.296 18.777 243.734 18.0606C244.171 17.3044 244.808 16.7273 245.644 16.3293C246.321 16.0109 247.296 15.8517 248.569 15.8517C249.525 15.8517 251.256 16.0308 253.763 16.389C254.878 16.5482 255.912 16.6676 256.868 16.7472C257.345 16.787 258.082 16.8069 259.077 16.8069C261.266 16.8069 262.937 16.8666 264.091 16.986C265.285 17.0656 266.44 17.3641 267.554 17.8815C268.31 18.2397 268.947 18.7969 269.464 19.5531C269.982 20.2695 270.24 21.0257 270.24 21.8217C270.24 22.5779 270.002 23.2545 269.524 23.8515C268.648 24.9659 266.718 25.5231 263.733 25.5231L260.987 25.4634L261.285 27.3141C261.763 30.2991 262.141 32.9458 262.42 35.2542C262.698 37.5228 262.838 39.8511 262.838 42.2391C262.838 50.0399 260.887 53.9602 256.987 54ZM290.104 53.0448C288.313 53.6816 286.522 54 284.731 54C282.781 54 280.97 53.6418 279.299 52.9254C277.468 52.1294 276.095 51.015 275.179 49.5822C274.304 48.1096 273.508 46.1395 272.791 43.6719C271.677 39.8909 271.12 36.4482 271.12 33.3438C271.12 29.921 271.816 26.9559 273.209 24.4485C274.642 21.9411 276.99 20.1103 280.254 18.9561C282.045 18.2795 283.935 17.9412 285.925 17.9412C289.069 17.9412 291.776 18.8765 294.044 20.7471C296.353 22.6177 297.825 25.2246 298.462 28.5678C298.86 30.7568 299.059 32.9259 299.059 35.0751C299.059 39.2143 298.343 42.9555 296.91 46.2987C295.517 49.6021 293.248 51.8508 290.104 53.0448ZM282.761 44.9853C283.836 46.0599 284.89 46.5972 285.925 46.5972C286.88 46.5972 287.716 46.1992 288.433 45.4032C289.149 44.5674 289.686 43.5127 290.045 42.2391C290.602 40.0103 290.88 37.7815 290.88 35.5527C290.88 32.0901 290.104 29.921 288.552 29.0454C288.074 28.8066 287.597 28.6872 287.119 28.6872C286.005 28.6872 284.871 29.1449 283.716 30.0603C282.602 30.9359 281.886 31.8513 281.567 32.8065C281.129 34.1199 280.91 35.8512 280.91 38.0004C280.91 39.5128 281.05 40.9058 281.328 42.1794C281.647 43.4132 282.124 44.3485 282.761 44.9853ZM332.136 51.9702C330.743 53.3234 329.429 54 328.196 54C326.007 54 324.255 52.3483 322.942 49.0449C321.629 45.7017 320.654 42.2391 320.017 38.6571C319.937 38.6969 319.4 38.7964 318.405 38.9556C317.649 39.075 316.892 39.2342 316.136 39.4332C315.38 39.5924 314.902 39.7715 314.703 39.9705C314.465 40.2491 314.305 40.8262 314.226 41.7018C314.146 42.5376 314.087 43.1147 314.047 43.4331C313.649 45.0649 313.271 46.3982 312.912 47.433C312.594 48.428 312.097 49.3434 311.42 50.1792C310.186 51.6916 308.694 52.4478 306.942 52.4478C305.788 52.4478 304.714 52.0896 303.719 51.3732C302.763 50.617 302.047 49.6021 301.569 48.3285C301.092 47.0549 300.853 45.4629 300.853 43.5525C300.853 42.5177 300.933 41.3436 301.092 40.0302C301.251 38.677 301.43 37.3835 301.629 36.1497C301.948 33.7219 302.147 32.1299 302.226 31.3737C302.306 30.4185 302.346 28.926 302.346 26.8962V22.4784C302.346 19.1352 302.505 16.5084 302.823 14.598C303.181 12.2896 304.355 10.618 306.345 9.5832C308.375 8.5086 310.863 7.9713 313.808 7.9713C316.514 7.9713 319.261 8.3494 322.047 9.1056C324.872 9.8618 327.061 10.7573 328.614 11.7921C330.564 13.0657 331.997 14.5582 332.912 16.2696C333.867 17.981 334.345 19.8118 334.345 21.762C334.345 23.7918 333.847 25.8415 332.852 27.9111C331.897 29.9409 330.524 31.7717 328.733 33.4035C332.355 38.7765 334.166 43.2341 334.166 46.7763C334.166 48.8857 333.489 50.617 332.136 51.9702ZM313.748 31.1946C316.654 30.0404 318.843 28.9459 320.315 27.9111C321.788 26.8763 322.524 25.7619 322.524 24.5679C322.524 23.4933 321.907 22.558 320.673 21.762C319.479 20.9262 318.126 20.5083 316.614 20.5083C315.34 20.5083 314.445 20.5879 313.927 20.7471C313.41 20.8665 313.032 21.3242 312.793 22.1202C312.674 22.5182 312.614 23.0356 312.614 23.6724C312.614 24.548 312.833 26.1201 313.271 28.3887C313.549 29.5827 313.708 30.518 313.748 31.1946ZM345.14 53.8806C344.543 53.8806 344.085 53.9005 343.767 53.9403L342.214 54C340.105 54 338.573 53.5224 337.617 52.5672C336.622 51.5722 336.125 50.02 336.125 47.9106C336.125 47.2738 336.165 46.3982 336.244 45.2838C336.324 44.647 336.364 44.1893 336.364 43.9107L336.841 33.702C337.08 28.3688 337.239 24.3689 337.319 21.7023C337.359 21.2247 337.359 20.8068 337.319 20.4486C337.319 20.0506 337.319 19.7123 337.319 19.4337V18.18C337.319 16.5084 337.478 15.2348 337.797 14.3592C338.553 12.1702 341.14 11.0757 345.558 11.0757C346.99 11.0757 348.523 11.1752 350.154 11.3742C351.826 11.5732 353.239 11.7722 354.393 11.9712C355.667 12.1702 356.682 12.409 357.438 12.6876C358.234 12.9264 358.891 13.3841 359.408 14.0607C359.965 14.6975 360.244 15.6129 360.244 16.8069C360.244 17.8019 359.985 18.6974 359.468 19.4934C358.95 20.2496 358.234 20.8068 357.318 21.165C356.841 21.364 356.244 21.4635 355.527 21.4635C355.05 21.4635 354.333 21.3839 353.378 21.2247C352.503 21.0655 351.826 20.9859 351.348 20.9859C351.07 20.9859 350.692 21.0257 350.214 21.1053C349.697 21.1849 349.199 21.5232 348.722 22.1202C348.244 22.7172 348.005 23.354 348.005 24.0306C348.005 24.7072 348.304 25.2644 348.901 25.7022C349.378 26.0206 350.115 26.1798 351.11 26.1798C351.547 26.1798 352.164 26.14 352.96 26.0604L354.811 26.0007C355.527 26.0007 356.105 26.0803 356.542 26.2395C357.537 26.6375 358.254 27.1549 358.692 27.7917C359.129 28.3887 359.388 29.2245 359.468 30.2991C359.507 30.5379 359.527 30.916 359.527 31.4334C359.527 32.6274 359.289 33.702 358.811 34.6572C358.333 35.5726 357.577 36.1895 356.542 36.5079C356.144 36.5875 355.806 36.6273 355.527 36.6273C355.169 36.6273 354.751 36.5875 354.274 36.5079C353.836 36.4283 353.518 36.3686 353.319 36.3288C352.523 36.1298 351.786 36.0303 351.11 36.0303C350.194 36.0303 349.478 36.289 348.96 36.8064C348.284 37.4432 347.946 38.0601 347.946 38.6571C347.946 39.5725 348.602 40.3287 349.916 40.9257C351.229 41.5227 352.483 41.861 353.677 41.9406C354.115 41.9804 354.513 42.0003 354.871 42.0003C355.229 41.9605 355.527 41.9406 355.766 41.9406C356.124 41.9008 356.662 41.8809 357.378 41.8809C359.368 41.8809 360.861 42.2391 361.856 42.9555C362.811 43.7117 363.288 44.9256 363.288 46.5972C363.288 47.8708 363.089 49.0051 362.691 50.0001C362.134 51.3533 361.358 52.2687 360.363 52.7463C359.368 53.1841 357.975 53.4627 356.184 53.5821C354.95 53.6617 353.876 53.7214 352.96 53.7612C352.045 53.7612 351.289 53.7612 350.692 53.7612C349.458 53.7612 347.607 53.801 345.14 53.8806Z" fill="#102C57"/>
</svg>
