<svg width="121" height="120" viewBox="0 0 121 120" fill="none" xmlns="http://www.w3.org/2000/svg">
<path fill-rule="evenodd" clip-rule="evenodd" d="M60.1946 0C83.5273 8.1398 103.588 23.6099 120.389 43.7376C119.835 70.1642 109.466 96.6019 97.4004 114.501C72.9366 121.576 47.7077 122.086 22.9888 114.501C9.91415 93.9848 0.354869 68.4897 0 43.7376C17.7434 22.9334 34.0009 10.1138 60.1946 0Z" fill="#373435"/>
<path fill-rule="evenodd" clip-rule="evenodd" d="M60.1725 2.12921C82.7289 10.0029 102.136 24.9517 118.371 44.403C117.839 69.9535 107.814 95.5152 96.1473 112.815C72.4931 119.646 48.107 120.145 24.2088 112.815C11.5777 92.9756 2.32889 68.3344 1.98511 44.403C19.1408 24.2974 34.8548 11.9103 60.1725 2.12921Z" fill="#5B5B5B" stroke="#595959" stroke-width="1.3542"/>
<path fill-rule="evenodd" clip-rule="evenodd" d="M60.1725 3.55975C82.1744 11.2338 101.093 25.8167 116.929 44.7911C116.408 69.7095 106.638 94.639 95.2491 111.517C72.1937 118.182 48.4064 118.659 25.0959 111.517C12.7753 92.1661 3.75945 68.1348 3.42676 44.7911C20.15 25.1846 35.4758 13.0969 60.1725 3.55975Z" fill="#373435"/>
<path fill-rule="evenodd" clip-rule="evenodd" d="M60.1724 5.06799C81.5865 12.5424 99.9953 26.7372 115.41 45.2014C114.911 69.4545 105.396 93.7187 94.3174 110.142C71.8719 116.63 48.7168 117.096 26.0384 110.142C14.0394 91.3122 5.2675 67.9241 4.93481 45.2014C21.2255 26.1162 36.1411 14.3611 60.1724 5.06799Z" fill="#5B5B5B" stroke="#595959" stroke-width="1.3561"/>
<path fill-rule="evenodd" clip-rule="evenodd" d="M42.6176 23.5433C43.3274 24.8076 44.1702 25.3731 43.771 27.3138C43.3717 29.4209 40.3886 30.8958 38.8028 34.0009C37.8824 35.7863 36.9286 37.6161 36.9286 41.0317C36.9286 41.0317 36.729 40.7212 34.8992 40.6325C34.5444 42.551 35.2541 45.2458 36.9286 46.7651C36.4074 47.3528 36.0193 48.1513 35.0989 49.227C35.4205 50.5799 36.8067 51.2564 37.8047 52.4097C37.3611 53.2414 35.731 53.9955 35.3428 55.5037C37.2835 55.1932 41.0207 57.3335 41.4976 60.5606C41.7748 62.3904 42.0964 64.6194 42.0964 66.915C42.0964 68.7115 42.3404 72.604 40.8655 73.4024C42.6509 74.9882 42.4513 76.818 42.9282 78.6922C43.405 80.522 44.1258 81.9193 45.1239 82.4627C46.7319 83.3498 49.1384 82.8286 49.8148 80.6772C49.9701 80.2004 49.6485 79.291 49.2603 78.8474C48.4952 78.049 47.3418 78.1155 46.9093 79.6459C46.0333 80.278 45.4011 79.6459 45.4011 77.8937C45.4011 76.1416 45.878 73.8349 46.4768 73.1252C44.647 71.9718 45.6562 66.6377 46.0776 64.0538C46.4768 61.5254 47.2309 59.2187 48.107 57.3335C49.7261 54.4502 51.4006 53.1638 53.5853 51.212C51.5559 50.1031 50.0921 46.9647 49.6928 44.7357C48.8168 46.4435 47.2309 49.3822 45.6008 47.9517C44.2811 46.8427 45.9556 43.1055 50.2917 41.2757C47.8187 40.322 47.2309 37.7381 47.6634 34.5886C47.9074 32.8476 48.6615 31.173 48.2179 28.4339C47.8187 25.6836 45.9113 23.2994 42.6176 23.5433ZM39.4349 52.565C40.0338 52.565 40.5439 53.0862 40.5439 53.7183C40.5439 54.3171 40.0338 54.8272 39.4349 54.8272C38.8028 54.8272 38.2816 54.3171 38.2816 53.7183C38.2816 53.0862 38.8028 52.565 39.4349 52.565ZM38.7141 47.996C39.3129 47.996 39.8341 48.5061 39.8341 49.1493C39.8341 49.7482 39.3129 50.2583 38.7141 50.2583C38.082 50.2583 37.5608 49.7482 37.5608 49.1493C37.5608 48.5061 38.082 47.996 38.7141 47.996ZM38.7584 42.8615C39.3573 42.8615 39.8674 43.3827 39.8674 44.0148C39.8674 44.6137 39.3573 45.1349 38.7584 45.1349C38.1263 45.1349 37.6051 44.6137 37.6051 44.0148C37.6051 43.3827 38.1263 42.8615 38.7584 42.8615Z" fill="#3D3B40"/>
<path fill-rule="evenodd" clip-rule="evenodd" d="M68.1016 42.8283C66.0944 43.8374 63.2111 44.6248 60.3167 44.6248C57.3668 44.6248 54.1065 43.3938 52.1991 42.6286C51.9551 42.5288 51.3451 42.9946 51.6002 43.5047C52.4874 45.2236 56.6904 46.5211 60.1947 46.5211C63.6879 46.5211 66.8374 46.0553 68.8668 43.7487C69.1551 43.4049 68.4343 42.6619 68.1016 42.8283ZM57.5664 50.0587C58.2429 50.3803 59.3519 50.5023 60.106 50.5023C60.8712 50.5023 62.0578 50.3803 62.8562 50.1363C62.5013 53.8735 62.6122 58.9304 60.2723 58.9304C57.9213 58.9304 57.9657 54.2728 57.5664 50.0587ZM67.902 45.6894C66.1166 46.6209 63.0558 47.4526 60.1947 47.4526C57.2892 47.4526 54.173 46.6542 52.2767 45.7227C52.0327 45.6118 51.3895 46.1108 51.6778 46.5987C52.7203 48.362 56.7902 49.482 60.2501 49.482C63.7101 49.482 67.2477 48.5727 68.6561 46.5987C68.9222 46.2328 68.2236 45.523 67.902 45.6894Z" fill="#373435"/>
<path fill-rule="evenodd" clip-rule="evenodd" d="M36.9064 57.2115C35.5424 56.7014 34.0896 56.9454 32.9474 57.5442C31.4392 58.4979 29.9754 60.117 30.2859 62.6676C30.6075 64.7747 31.7164 65.806 32.5149 66.4381C30.5298 67.8798 28.1788 66.0056 28.1788 63.4217C28.1456 60.3166 32.3929 50.3359 32.3929 45.8446C32.7145 43.4714 31.9161 35.6643 30.0086 33.7236C25.5173 39.4459 23.9648 44.2588 23.7652 48.3952C23.5655 52.4873 22.6895 69.7096 29.8866 69.1883C31.2839 69.1107 32.1933 68.6671 32.8698 68.1126C32.6701 68.0794 32.4705 67.8798 32.4705 67.6801C32.4705 67.3585 32.7145 67.2033 32.9474 67.2033C33.269 67.2033 33.4242 67.3142 33.4242 67.5582C33.4242 67.5582 33.4242 67.5582 33.4242 67.5138C33.513 67.8798 33.5462 68.3123 33.6239 68.8335C31.9604 70.8185 28.2232 71.0514 26.3934 69.6208C24.4084 68.035 23.5545 65.5288 22.7227 62.4236C21.8356 58.3316 21.8134 52.3653 22.4898 47.7188C17.688 49.8591 16.4127 56.7014 18.675 63.7433C19.8727 67.3585 23.6432 74.6334 30.7295 72.8036C31.6055 72.6039 32.5149 71.9275 33.269 71.1734C33.0694 71.0958 32.9474 70.8961 32.9474 70.7409C32.9474 70.4193 33.1137 70.264 33.4242 70.264C33.5906 70.264 33.7126 70.2973 33.7902 70.4193C33.8678 70.8961 33.9122 71.4174 33.9898 71.9718C32.5925 73.7573 30.1417 74.4892 27.9127 74.3672C23.3438 74.1676 20.3828 70.3417 18.5974 66.6821C16.4903 74.0345 22.6562 77.8604 26.8259 77.8604C30.2082 77.8604 32.5593 76.4188 33.7902 74.7553C33.5906 74.7553 33.3466 74.6001 33.3466 74.3118C33.3466 74.0789 33.5906 73.8349 33.8235 73.8349C34.0674 73.8349 34.1894 73.9236 34.2671 74.0345C34.2671 74.0345 34.2671 74.0012 34.3003 73.9569C34.389 74.5557 34.5554 74.9771 34.6774 75.576C33.6793 77.0065 31.8162 78.182 29.8423 78.7365C25.8722 79.7235 22.512 78.8142 19.6731 76.1859C19.2295 81.9858 27.2584 82.6734 30.0419 82.1965C32.4373 81.8416 33.7902 80.5996 34.7439 78.925C34.4667 78.925 34.3003 78.6922 34.3003 78.4926C34.3003 78.171 34.4667 78.0157 34.7772 78.0157C34.9435 78.0157 35.0544 78.049 35.1431 78.1377C35.1431 78.1377 35.1431 78.0933 35.1764 78.049C35.3428 78.6145 35.498 79.2023 35.6976 79.7679C34.4334 82.13 31.8717 83.2722 30.7184 83.5051C26.2492 84.3701 24.8409 83.5383 21.8023 82.3074C22.9445 88.6063 31.0178 87.4308 32.9585 86.4771C34.5554 85.6786 35.7753 84.4588 36.3741 82.751C36.3741 82.751 36.3297 82.7842 36.2965 82.7842C35.9749 82.7842 35.8196 82.629 35.8196 82.3074C35.8196 82.0745 35.9749 81.8305 36.2965 81.8305C36.4074 81.8305 36.5293 81.8749 36.6513 81.9525C37.4831 83.7047 38.6031 85.1685 40.0669 86.1222C44.3697 88.8281 49.4931 87.2423 52.9088 87.4752C52.3543 89.7818 54.5833 89.7818 55.3818 89.305C56.4907 88.5952 56.4907 86.9761 55.7921 86.1333C54.6831 84.614 51.0457 85.723 46.4324 84.858C42.6176 84.3812 39.0356 80.7216 39.0356 75.0769C39.0356 72.7703 38.2372 67.4362 38.958 64.3311C37.605 65.2737 36.1523 65.2848 35.2097 64.9964C34.1229 64.5861 32.9141 63.5326 32.9141 61.6363C32.9363 60.5495 33.3133 60.0394 34.0231 59.4073C33.8678 59.8065 33.7902 60.2057 33.7902 60.6826C33.7902 62.59 34.6663 63.699 36.5737 63.699C38.4589 63.6324 39.8341 62.59 39.8341 60.6826C39.6455 58.5423 38.0265 57.6551 36.9064 57.2115Z" fill="#373435"/>
<path fill-rule="evenodd" clip-rule="evenodd" d="M48.5395 91.8556C48.5395 91.8556 51.1234 91.656 51.7222 93.1642C52.3543 94.8387 53.4744 96.1029 54.2285 96.9014C52.5539 96.6574 50.8018 94.9163 50.5245 94.0403C50.092 92.8093 48.4618 91.4564 48.5395 91.8556ZM42.9281 92.0552C42.9281 92.0552 46.0776 91.4564 48.107 92.8093C50.1253 94.1622 50.3249 96.2249 52.7979 97.223C51.2786 97.4559 50.0477 97.3006 48.3842 97.0234C46.7097 96.7461 45.6007 95.2269 45.0795 94.3619C44.6026 93.519 42.9281 92.0552 42.9281 92.0552ZM31.8828 92.0885C31.8828 92.0885 36.1301 91.6116 37.4055 92.6873C38.6808 93.763 39.7121 96.3026 42.2184 97.3006C40.6658 97.5335 38.5588 97.4226 37.2502 96.857C35.9305 96.3026 34.8216 94.872 34.5 94.2399C34.1895 93.5967 31.8828 92.0885 31.8828 92.0885ZM38.3592 92.0552C38.3592 92.0552 41.8968 92.0885 43.0168 93.5967C44.1258 95.116 45.3235 96.2249 46.5544 97.223C45.0019 97.4559 45.5564 97.3782 43.8818 97.101C42.2184 96.8238 40.5438 94.872 40.3442 94.2399C40.0337 93.3194 38.2815 91.6893 38.3592 92.0552ZM48.6171 98.4872C47.2309 99.3633 45.8336 99.7293 43.9705 99.7293C42.174 99.7293 41.8635 99.3633 40.6658 98.4872H48.6171ZM50.2473 98.4872C48.8167 99.7293 46.5101 100.838 44.2478 100.838C41.6639 100.838 40.8211 99.8069 39.5125 98.9308C39.3129 98.7755 38.6031 98.2987 37.7271 98.4872C39.08 99.4853 39.08 100.639 40.067 101.515C41.4643 102.712 42.6952 102.746 44.2478 102.712C48.4175 102.624 50.2916 99.1637 51.4006 98.6868L50.2473 98.4872ZM60.106 84.858C58.6754 89.2274 53.186 90.5027 53.1084 93.1642C53.0308 96.2693 56.2579 97.3782 60.106 97.3782C63.9652 97.3782 67.1923 96.4689 67.1923 93.1642C67.1923 90.1367 61.9025 89.7818 60.106 84.858ZM66.8707 98.4872H53.4744C54.6277 100.483 57.5664 101.969 60.1503 100.783C63.4883 102.147 66.0389 100.117 66.8707 98.4872ZM60.1503 105.23C56.7015 105.962 51.5226 103.3 51.6778 98.6536C52.7979 98.9308 53.7072 100.55 54.7386 101.115C55.8143 101.703 57.1007 102.568 60.1947 101.936C63.5881 102.657 64.564 101.792 65.6397 101.193C66.671 100.639 67.5028 98.7312 68.6228 98.6536C68.7781 103.3 63.8765 106.017 60.1503 105.23ZM71.8388 91.8556C71.8388 91.8556 69.2549 91.656 68.6561 93.1642C68.024 94.8387 66.915 96.1029 66.1498 96.9014C67.8244 96.6574 69.5765 94.9163 69.8538 94.0403C70.2863 92.8093 71.9165 91.4564 71.8388 91.8556ZM77.4502 92.0552C77.4502 92.0552 74.3007 91.4564 72.2824 92.8093C70.253 94.1622 70.0534 96.2249 67.5804 97.223C69.0997 97.4559 70.3306 97.3006 71.9941 97.0234C73.6686 96.7461 74.7776 95.2269 75.2988 94.3619C75.7757 93.519 77.4502 92.0552 77.4502 92.0552ZM88.5066 92.0885C88.5066 92.0885 84.2481 91.6116 82.9728 92.6873C81.6975 93.763 80.6662 96.3026 78.1599 97.3006C79.7125 97.5335 81.8195 97.4226 83.1281 96.857C84.4478 96.3026 85.5567 94.872 85.8783 94.2399C86.1999 93.5967 88.5066 92.0885 88.5066 92.0885ZM82.0191 92.0552C82.0191 92.0552 78.4815 92.0885 77.3726 93.5967C76.2525 95.116 75.0659 96.2249 73.8239 97.223C75.3764 97.4559 74.8219 97.3782 76.4965 97.101C78.1599 96.8238 79.8345 94.872 80.0341 94.2399C80.3446 93.3194 82.0968 91.6893 82.0191 92.0552ZM71.6059 98.4872C72.9921 99.3633 74.2231 99.8402 76.0973 99.8402C77.8827 99.8402 78.5259 99.3633 79.7125 98.4872H71.6059ZM70.131 98.4872C71.5616 99.7293 73.8239 100.838 76.1305 100.838C78.3263 100.838 80.3889 99.208 81.2207 98.8088C81.4646 98.6868 81.9748 98.5316 82.6512 98.6536C81.3094 99.7293 80.8214 100.761 80.1117 101.393C79.036 102.391 77.7607 102.712 76.1305 102.712C71.9941 102.668 70.0867 99.1637 68.9777 98.6868L70.131 98.4872Z" fill="#3D3B40"/>
<path fill-rule="evenodd" clip-rule="evenodd" d="M58.6421 20.9151C59.0413 27.3582 52.1103 30.6518 51.1676 34.7883C50.3248 38.4589 51.1676 43.416 60.1503 43.5823C67.3031 43.7376 69.6097 41.3533 69.3768 36.8177C69.0996 32.4816 63.7322 30.8514 64.5639 26.5597C62.6898 27.2806 61.5365 29.1104 61.9357 30.9734C62.6122 34.0785 64.3643 37.2169 60.2722 37.2945C58.8417 37.2945 57.888 35.8639 58.3205 34.1118C58.875 31.8495 61.1483 28.6668 61.1483 25.8056C61.1483 23.8539 60.5495 22.0241 58.6421 20.9151Z" fill="#3D3B40"/>
<path fill-rule="evenodd" clip-rule="evenodd" d="M57.2448 68.2679C57.9989 67.6358 56.2911 64.8966 55.781 63.5437C55.0602 63.8542 54.7053 63.9429 54.1508 64.453C53.43 65.0075 53.308 65.2515 52.9088 65.9612C54.3394 67.0813 56.5351 68.8667 57.2448 68.2679ZM60.106 67.1589C61.0597 67.1145 61.5365 64.0205 62.0245 62.59C61.226 62.3904 60.9821 62.2684 60.1503 62.2684C59.3186 62.2684 59.0414 62.3904 58.2429 62.6232C58.6421 64.3754 59.1523 67.2033 60.106 67.1589ZM62.9782 68.1902C63.7323 68.7447 66.1166 66.6821 67.3919 65.8836C66.915 65.2515 66.793 64.9742 66.1498 64.453C65.5177 63.8985 65.2405 63.8209 64.442 63.4993C63.6547 65.0962 62.213 67.5914 62.9782 68.1902ZM64.5197 70.8185C64.7193 71.7278 67.902 71.6502 69.3769 71.8942C69.4102 71.0957 69.4989 70.7741 69.3326 69.9868C69.2106 69.144 69.0553 68.9111 68.6561 68.157C67.0259 68.8667 64.32 69.8648 64.5197 70.8185ZM64.0095 73.8016C63.5659 74.6333 66.0722 76.6184 67.0259 77.7384C67.5804 77.1839 67.8687 76.9843 68.2236 76.2635C68.7005 75.5538 68.7005 75.2654 68.9001 74.4337C67.1923 73.9236 64.4864 72.9699 64.0095 73.8016ZM61.7029 75.7423C60.8268 76.1083 61.4589 79.2466 61.5033 80.7215C62.2574 80.6439 62.6122 80.6772 63.3331 80.3556C64.1648 80.1227 64.3644 79.9231 65.0409 79.4019C64.0428 77.8937 62.6122 75.4318 61.7029 75.7423ZM58.6754 75.7867C57.7661 75.4651 56.2579 78.2929 55.3374 79.4462C55.9695 79.8787 56.2135 80.156 56.9676 80.3556C57.7661 80.7215 58.0433 80.6772 58.875 80.7215C59.119 78.925 59.5958 76.1083 58.6754 75.7867ZM56.3355 73.8792C55.8586 73.0475 52.8755 74.2341 51.445 74.5113C51.6446 75.2654 51.6446 75.6314 52.0771 76.2635C52.4763 77.062 52.7092 77.2172 53.308 77.7717C54.661 76.5407 56.8456 74.711 56.3355 73.8792ZM55.781 70.8961C55.9363 69.9424 52.8755 68.9443 51.6002 68.2346C51.2786 68.9443 51.0457 69.2216 50.9681 69.9868C50.7685 70.8518 50.8461 71.1401 50.9681 71.9275C52.7979 71.8498 55.6147 71.8498 55.781 70.8961ZM60.106 68.9111C58.5978 68.9111 57.4112 70.0977 57.4112 71.6169C57.4112 73.1251 58.5978 74.4004 60.106 74.4004C61.6253 74.4004 62.8895 73.1251 62.8895 71.6169C62.8895 70.0977 61.6253 68.9111 60.106 68.9111ZM60.1503 59.8841C53.674 59.8841 48.4175 65.1739 48.4175 71.6502C48.4175 78.1377 53.674 83.3831 60.1503 83.3831C66.6267 83.3831 71.9165 78.1377 71.9165 71.6502C71.9165 65.1739 66.6267 59.8841 60.1503 59.8841Z" fill="#3D3B40"/>
<path fill-rule="evenodd" clip-rule="evenodd" d="M83.4386 57.2115C84.8137 56.7014 86.2554 56.9454 87.4087 57.5442C88.9169 58.4979 90.3807 60.117 90.0591 62.6676C89.7486 64.7747 88.6285 65.806 87.8412 66.4381C89.8262 67.8798 92.1661 66.0056 92.1661 63.4217C92.2105 60.3166 87.9521 50.3359 87.9521 45.8446C87.6305 43.4714 88.4289 35.6643 90.3474 33.7236C94.8388 39.4459 96.3913 44.2588 96.5798 48.3952C96.7794 52.4873 97.6555 69.7096 90.4583 69.1883C89.0721 69.1107 88.1517 68.6671 87.4752 68.1126C87.6748 68.0794 87.8744 67.8798 87.8744 67.6801C87.8744 67.3585 87.6416 67.2033 87.3976 67.2033C87.0871 67.2033 86.9207 67.3142 86.9207 67.5582C86.9207 67.5582 86.9207 67.5582 86.9207 67.5138C86.8431 67.8798 86.7988 68.3123 86.7211 68.8335C88.3957 70.8185 92.1329 71.0514 93.9627 69.6208C95.9477 68.035 96.8016 65.5288 97.6333 62.4236C98.5205 58.3316 98.5316 52.3653 97.8551 47.7188C102.668 49.8591 103.943 56.7014 101.67 63.7433C100.483 67.3585 96.7018 74.6334 89.6266 72.8036C88.7505 72.6039 87.8412 71.9275 87.0871 71.1734C87.2756 71.0958 87.3976 70.8961 87.3976 70.7409C87.3976 70.4193 87.2423 70.264 86.9207 70.264C86.7655 70.264 86.6435 70.2973 86.5659 70.4193C86.4882 70.8961 86.4439 71.4174 86.3663 71.9718C87.7525 73.7573 90.2144 74.4892 92.4323 74.3672C97.0123 74.1676 99.9622 70.3417 101.759 66.6821C103.866 74.0345 97.6999 77.8604 93.5191 77.8604C90.1478 77.8604 87.7968 76.4188 86.5659 74.7553C86.7655 74.7553 86.9984 74.6001 86.9984 74.3118C86.9984 74.0789 86.7655 73.8349 86.5215 73.8349C86.2886 73.8349 86.1666 73.9236 86.089 74.0345C86.089 74.0345 86.089 74.0012 86.0447 73.9569C85.967 74.5557 85.8007 74.9771 85.6787 75.576C86.6657 77.0065 88.5398 78.182 90.5138 78.7365C94.4839 79.7235 97.844 78.8142 100.683 76.1859C101.115 81.9858 93.0866 82.6734 90.3031 82.1965C87.9188 81.8416 86.5659 80.5996 85.6122 78.925C85.8894 78.925 86.0447 78.6922 86.0447 78.4926C86.0447 78.171 85.8894 78.0157 85.5678 78.0157C85.4125 78.0157 85.2906 78.049 85.2129 78.1377C85.2129 78.1377 85.2129 78.0933 85.1686 78.049C85.0133 78.6145 84.8581 79.2023 84.6585 79.7679C85.9227 82.13 88.4733 83.2722 89.6266 83.5051C94.0957 84.3701 95.5041 83.5383 98.5538 82.3074C97.4005 88.6063 89.3383 87.4308 87.3865 86.4771C85.8007 85.6786 84.5808 84.4588 83.982 82.751C83.982 82.751 84.0153 82.7842 84.0596 82.7842C84.3812 82.7842 84.5365 82.629 84.5365 82.3074C84.5365 82.0745 84.3812 81.8305 84.0596 81.8305C83.9376 81.8305 83.8267 81.8749 83.7047 81.9525C82.8619 83.7047 81.753 85.1685 80.278 86.1222C75.9863 88.8281 70.8629 87.2423 67.4362 87.4752C67.9907 89.7818 65.7728 89.7818 64.9743 89.305C63.8654 88.5952 63.8654 86.9761 64.5529 86.1333C65.673 84.614 69.3104 85.723 73.9237 84.858C77.7385 84.3812 81.3205 80.7216 81.3205 75.0769C81.3205 72.7703 82.1078 67.4362 81.3981 64.3311C82.751 65.2737 84.2038 65.2848 85.1464 64.9964C86.2332 64.5861 87.442 63.5326 87.442 61.6363C87.4198 60.5495 87.0427 60.0394 86.3219 59.4073C86.4882 59.8065 86.5659 60.2057 86.5659 60.6826C86.5659 62.59 85.6898 63.699 83.7824 63.699C81.886 63.6324 80.522 62.59 80.522 60.6826C80.7105 58.5423 82.3296 57.6551 83.4386 57.2115Z" fill="#373435"/>
<path fill-rule="evenodd" clip-rule="evenodd" d="M77.683 23.5433C76.9733 24.8076 76.1304 25.3731 76.5297 27.3138C76.9289 29.4209 79.912 30.8958 81.4978 34.0009C82.4183 35.7863 83.372 37.6161 83.372 41.0317C83.372 41.0317 83.5716 40.7212 85.4014 40.6325C85.7563 42.551 85.0354 45.2458 83.372 46.7651C83.8821 47.3528 84.2813 48.1513 85.2018 49.227C84.8802 50.5799 83.494 51.2564 82.4959 52.4097C82.9284 53.2414 84.5586 53.9955 84.9578 55.5037C83.0171 55.1932 79.2799 57.3335 78.8031 60.5606C78.5147 62.3904 78.2042 64.6194 78.2042 66.915C78.2042 68.7115 77.9602 72.604 79.4352 73.4024C77.6497 74.9882 77.8383 76.818 77.3614 78.6922C76.8845 80.522 76.1748 81.9193 75.1767 82.4627C73.5687 83.3498 71.1623 82.8286 70.4858 80.6772C70.3306 80.2004 70.6411 79.291 71.0403 78.8474C71.7944 78.049 72.9477 78.1155 73.3913 79.6459C74.2674 80.278 74.8995 79.6459 74.8995 77.8937C74.8995 76.1416 74.4226 73.8349 73.8238 73.1252C75.6536 71.9718 74.6444 66.6377 74.223 64.0538C73.8127 61.5254 73.0586 59.2187 72.1936 57.3335C70.5745 54.4502 68.9 53.1638 66.7153 51.212C68.7336 50.1031 70.2086 46.9647 70.6078 44.7357C71.4839 46.4435 73.0697 49.3822 74.6999 47.9517C76.0195 46.8427 74.345 43.1055 70.009 41.2757C72.4709 40.322 73.0697 37.7381 72.6372 34.5886C72.3932 32.8476 71.6391 31.173 72.0827 28.4339C72.4709 25.6836 74.3894 23.2994 77.683 23.5433ZM80.8657 52.565C80.2669 52.565 79.7568 53.0862 79.7568 53.7183C79.7568 54.3171 80.2669 54.8272 80.8657 54.8272C81.4978 54.8272 82.019 54.3171 82.019 53.7183C82.019 53.0862 81.4978 52.565 80.8657 52.565ZM81.5866 47.996C80.9877 47.996 80.4665 48.5061 80.4665 49.1493C80.4665 49.7482 80.9877 50.2583 81.5866 50.2583C82.2187 50.2583 82.7288 49.7482 82.7288 49.1493C82.7288 48.5061 82.2187 47.996 81.5866 47.996ZM81.5422 42.8615C80.9434 42.8615 80.4332 43.3827 80.4332 44.0148C80.4332 44.6137 80.9434 45.1349 81.5422 45.1349C82.1743 45.1349 82.6955 44.6137 82.6955 44.0148C82.6955 43.3827 82.1743 42.8615 81.5422 42.8615Z" fill="#3D3B40"/>
</svg>
