<svg width="408" height="120" viewBox="0 0 408 120" fill="none" xmlns="http://www.w3.org/2000/svg">
<path fill-rule="evenodd" clip-rule="evenodd" d="M54.8966 116.015C55.0268 116.029 55.1426 116.029 55.2728 116.029C59.9464 116.116 63.8386 111.587 61.2631 106.118C60.9737 110.357 59.1216 112.644 55.1715 112.644C55.0847 112.644 54.9834 112.644 54.8966 112.644C54.8098 112.644 54.7085 112.644 54.6217 112.644C50.6715 112.644 48.8195 110.357 48.5301 106.118C45.9401 111.587 49.8468 116.116 54.5204 116.029C54.6506 116.029 54.7808 116.015 54.8966 116.015ZM54.8966 109.287C54.9979 109.301 55.0991 109.301 55.2004 109.301C58.6586 109.388 59.3965 105.886 58.5428 103.759C57.993 105.872 56.3869 106.957 54.8966 106.61C53.4062 106.943 51.8001 105.872 51.2503 103.759C50.3966 105.872 51.1346 109.388 54.5927 109.301C54.694 109.301 54.7953 109.301 54.8966 109.287ZM54.8966 98.8109C55.2728 98.7965 55.6345 98.7965 55.9818 98.8109C66.8916 99.2884 80.7822 103.036 86.5265 100.808C90.4622 99.274 96.8286 94.5135 99.7949 98.7096C100.692 99.9829 97.0746 103.137 97.0023 99.4042C95.5409 96.3946 92.4155 100.895 94.6872 103.282C86.4107 111.472 63.911 102.139 61.755 101.531C61.1329 101.358 60.8001 102.009 61.292 102.877C62.0734 104.28 64.4897 106.321 65.0685 108.476C66.2405 112.817 62.7534 119.791 55.7792 119.994C55.4898 120.008 55.2004 119.994 54.9255 119.98C54.6506 119.994 54.3612 119.994 54.0718 119.994C47.0976 119.806 43.596 112.832 44.7825 108.476C45.3613 106.321 47.7777 104.266 48.559 102.877C49.051 102.009 48.7037 101.358 48.096 101.531C45.9401 102.139 23.4403 111.472 15.1638 103.282C17.4355 100.895 14.3102 96.3946 12.8488 99.4042C12.7764 103.137 9.15907 99.9829 10.0562 98.7096C13.0224 94.5135 19.3744 99.2884 23.3245 100.808C29.0544 103.036 42.9594 99.2884 53.8548 98.8109C54.1876 98.7965 54.5493 98.7965 54.94 98.8109H54.8966ZM54.8966 85.8754C54.2889 85.7886 53.5799 86.049 53.5365 86.6422C52.8275 92.5747 53.4641 91.7065 51.4095 94.1952C48.5011 97.7257 45.6507 97.4219 41.0784 97.6679C36.7521 97.9138 33.3084 98.2032 32.5849 96.3367C32.1942 95.3528 34.6106 87.9879 41.3099 86.6278C43.6829 86.1503 48.0815 87.3368 48.0815 85.9188C48.0815 83.5169 41.4835 84.2259 39.4144 84.7612C32.1508 86.6278 26.0303 89.594 20.3873 97.7691C31.0656 103.325 42.5398 97.8704 54.6217 97.2483C54.7229 97.2627 54.8098 97.2627 54.911 97.2772C55.0123 97.2627 55.0991 97.2627 55.2004 97.2483C67.2823 97.8704 78.7565 103.325 89.4348 97.7691C83.7918 89.5795 77.6568 86.6278 70.4077 84.7612C68.3386 84.2259 61.7406 83.5169 61.7406 85.9188C61.7406 87.3368 66.1392 86.1503 68.5122 86.6278C75.2115 87.9879 77.6279 95.3528 77.2372 96.3367C76.4993 98.2032 73.07 97.9138 68.7437 97.6679C64.1714 97.4074 61.3209 97.7257 58.4126 94.1952C56.358 91.7065 56.9946 92.5747 56.2856 86.6422C56.2422 86.049 55.5477 85.7886 54.9255 85.8754H54.8966ZM54.8966 50.3966C54.5783 50.2085 54.3033 49.5863 54.2744 48.5445C54.1731 43.6829 52.8998 38.5173 53.3918 32.8453C53.5943 30.8486 54.2165 29.7344 54.8966 29.474C55.5766 29.7344 56.1988 30.8486 56.4014 32.8453C56.8933 38.5028 55.62 43.6829 55.5188 48.5445C55.4898 49.5719 55.2149 50.2085 54.8966 50.3966ZM54.8966 0C47.633 5.4694 36.1009 6.65588 36.3035 20.7345C36.1878 26.3197 38.7778 29.4451 48.5156 29.3438C51.4239 29.3148 51.4384 39.2987 51.3516 43.6684C49.5285 40.5575 47.8211 38.445 44.5365 35.9562C37.0414 29.4161 33.4965 28.0271 33.4965 20.0255C33.4965 13.9484 35.0013 12.0095 38.1845 7.92918C26.9708 9.75232 10.852 19.3599 22.7024 30.9788C27.9547 36.0865 36.3759 31.9627 42.1346 36.781C45.4192 39.1684 51.6554 46.3597 51.6554 51.3082L51.8146 54.2165L51.3082 67.2823C51.2503 68.0492 50.2809 67.89 50.2664 67.21C50.2664 53.1024 42.7424 43.0896 29.5897 43.0896C24.7281 43.0896 21.9355 44.1025 16.8133 43.8999C11.9806 43.9578 6.27968 40.1089 6.09158 36.0286C0.708996 41.1941 1.51928 53.7824 11.4018 52.7406C17.7683 51.395 18.4628 45.26 27.6219 45.26C33.3807 45.2311 38.0398 45.3613 42.5832 50.0928C44.5655 52.1619 46.2729 54.1297 47.387 61.292C47.4883 62.927 46.8082 62.8692 46.4176 61.9721C43.0173 54.2744 39.4868 52.4079 33.236 52.1329C23.1798 52.0751 14.5127 66.8482 7.20572 66.8482C3.86331 66.8482 1.93889 65.5315 0 62.9126C0.173632 69.0331 1.01285 74.734 7.62533 74.7919C11.6767 74.8498 14.9613 69.8723 17.1606 66.2839C20.9516 60.0621 28.2152 52.7985 36.1588 54.448C43.133 56.2712 47.17 63.6071 47.17 74.4301C47.17 76.5861 46.2873 80.3915 43.6829 80.3915C41.1941 80.3915 40.297 79.7983 40.297 77.3529C40.297 72.8675 41.8453 62.2759 36.7521 62.2759C33.9739 62.1746 32.7585 63.7952 32.6572 65.9222C32.6717 68.2662 37.3164 70.2485 36.4771 66.5878C36.2167 65.4592 38.0543 64.9962 38.1556 66.7035C38.0688 70.3787 34.8421 69.9447 35.1749 77.8738C35.1749 83.9654 40.0077 82.7066 46.3307 82.7355C51.5108 83.3577 49.6732 88.9139 46.0414 88.9284C44.2472 89.0007 43.6539 87.9155 42.4674 87.7419C41.4691 87.5972 40.4851 87.8866 40.2681 88.6101C39.7183 91.6197 44.0157 92.4444 47.4159 92.4444C49.8468 92.5747 46.4754 94.5135 44.8115 94.557C43.6539 94.5859 43.7118 95.7724 44.7536 95.7868C50.686 95.6132 51.0911 91.5473 52.2632 86.0779C52.3644 84.6599 53.276 84.0378 54.9255 83.9654C56.575 84.0522 57.4721 84.6599 57.5879 86.0779C58.7454 91.5473 59.1506 95.6277 65.0974 95.7868C66.1392 95.7579 66.1971 94.5859 65.0396 94.557C63.3756 94.4991 60.0042 92.5602 62.4351 92.4444C65.8498 92.4444 70.1472 91.6052 69.5829 88.6101C69.3659 87.8866 68.382 87.6117 67.3836 87.7419C66.1826 87.9155 65.6039 89.0007 63.8097 88.9284C60.1634 88.9139 58.3258 83.3577 63.5203 82.7355C69.8434 82.6921 74.6761 83.951 74.6761 77.8738C75.0089 69.9591 71.7823 70.3787 71.6954 66.7035C71.7967 64.9962 73.6343 65.4592 73.3739 66.5878C72.5347 70.2485 77.1793 68.2662 77.1938 65.9222C77.0925 63.7952 75.8771 62.1746 73.099 62.2759C68.0058 62.2759 69.554 72.8675 69.554 77.3529C69.554 79.7838 68.6569 80.3915 66.1682 80.3915C63.5637 80.3915 62.6811 76.5861 62.6811 74.4301C62.6811 63.6071 66.718 56.2856 73.6922 54.448C81.6359 52.7985 88.8995 60.0621 92.6904 66.2839C94.8753 69.8723 98.1743 74.8498 102.226 74.7919C108.824 74.734 109.677 69.0331 109.851 62.9126C107.912 65.5315 105.988 66.8482 102.645 66.8482C95.3383 66.8482 86.6712 52.0751 76.615 52.1329C70.3643 52.3934 66.8338 54.2744 63.4335 61.9721C63.0428 62.8692 62.3627 62.9415 62.464 61.292C63.5782 54.1297 65.2711 52.1763 67.2678 50.0928C71.7967 45.3613 76.4703 45.2166 82.2291 45.26C91.3737 45.26 92.0827 51.395 98.4492 52.7406C108.346 53.7824 109.142 41.1941 103.759 36.0286C103.571 40.1089 97.8704 43.9578 93.0377 43.8999C87.9155 44.1025 85.123 43.0896 80.2613 43.0896C67.1087 43.0896 59.5846 53.0879 59.5846 67.21C59.5702 67.9045 58.6007 68.0492 58.5428 67.2823L58.0364 54.2165L58.1956 51.3082C58.1956 46.3597 64.4319 39.1684 67.7164 36.781C73.4752 31.9627 81.8963 36.0865 87.1487 30.9788C99.0135 19.3744 82.8802 9.76679 71.6665 7.92918C74.8498 12.0095 76.3546 13.9484 76.3546 20.0255C76.3546 28.0271 72.8096 29.4161 65.3145 35.9562C62.0299 38.445 60.3226 40.5575 58.4994 43.6684C58.4126 39.2842 58.4126 29.3148 61.3354 29.3438C71.0588 29.4306 73.6488 26.3052 73.5475 20.7345C73.7501 6.65588 62.218 5.45493 54.9545 0H54.8966ZM50.5558 8.84075C47.9224 9.57868 46.5478 13.8327 46.7504 18.2603C46.7504 20.6043 48.7326 23.7152 50.1217 24.6846C49.1667 22.1236 47.7487 16.032 50.5558 8.85522V8.84075ZM53.4352 68.7582C53.4352 67.3836 52.0172 67.181 51.9593 69.2646C52.1619 75.5877 49.268 75.3417 49.0944 77.787C49.0944 79.5957 49.4416 80.869 51.7712 80.623C53.8258 80.623 53.4641 76.7308 53.4641 74.9366L53.4352 68.7582ZM28.8373 36.2167C27.1444 38.9659 21.7763 41.4112 18.3326 41.4112C5.77326 41.4112 6.26521 27.8245 15.9597 21.4146C15.7137 30.6749 20.4017 36.1878 28.8373 36.2167ZM15.2796 54.3612C13.7603 60.3949 11.2571 64.1714 6.12052 64.1714C-0.737935 63.5058 -0.376202 53.5943 1.0852 49.7889C4.51443 55.9818 10.1575 56.3869 15.2796 54.3612ZM43.6395 76.0218C44.8983 75.906 45.3613 77.2227 44.8983 78.1343C44.4353 79.0459 43.133 78.9446 42.5687 78.0475C42.1346 77.3674 42.4096 76.0652 43.6395 76.0218ZM9.81019 83.6326C6.95974 83.6326 3.45817 79.1037 3.06749 76.2822C4.83275 77.0491 6.98868 77.8883 9.14461 77.541C11.6044 77.0491 11.7346 76.8031 13.0369 75.0523C15.3375 78.6841 14.8021 83.6326 9.81019 83.6326ZM14.7732 89.7821C11.0256 90.9252 8.26198 86.3095 7.55298 84.9349C10.0128 86.4541 14.7587 86.3818 15.7281 83.676C16.6831 86.2516 17.2185 88.639 14.7732 89.7821ZM16.1188 94.5714C14.5272 94.2965 13.5577 93.573 13.2394 92.3721C15.1928 92.6759 17.2619 92.0972 18.0143 90.4621C19.0271 92.2419 18.7667 95.0344 16.1043 94.5714H16.1188ZM34.3212 89.4348C32.6283 91.0699 30.9933 94.1518 29.6766 96.1196C28.8229 97.3929 27.4772 96.9444 27.8245 96.2065C28.8952 93.9782 31.9482 90.1728 34.3212 89.4348ZM32.9756 88.3641C31.3261 90.0281 29.3293 91.9959 28.8952 92.5023C26.2039 95.7 24.8728 97.5666 24.1203 95.7C23.9612 95.3238 25.4515 93.11 27.6364 91.4895C29.3582 90.2306 30.8341 88.9718 32.9611 88.3641H32.9756ZM44.5365 117.78C42.0044 119.126 35.58 117.578 34.6395 114.452C38.3726 112.629 40.2102 111.197 43.0028 108.983C42.9015 113.15 43.3356 114.496 44.5365 117.78ZM24.048 109.084C25.929 108.824 30.2698 109.099 33.0334 108.23C37.5189 106.798 39.9787 106.436 44.1748 104.671C42.5542 107.695 37.9675 110.43 36.4771 111.443C32.5994 114.771 24.8293 114.51 24.0625 109.084H24.048ZM59.2518 8.85522C61.8853 9.59315 63.2598 13.8471 63.0573 18.2747C63.0573 20.6188 61.075 23.7297 59.6859 24.6991C60.6409 22.138 62.0589 16.0465 59.2518 8.86969V8.85522ZM56.3724 68.7726C56.3724 67.3981 57.7904 67.1955 57.8483 69.2791C57.6457 75.6022 60.5396 75.3562 60.7132 77.8015C60.7132 79.6102 60.366 80.8835 58.0364 80.6375C55.9818 80.6375 56.3435 76.7452 56.3435 74.951L56.3724 68.7726ZM80.9703 36.2312C82.6632 38.9803 88.0313 41.4256 91.475 41.4256C104.034 41.4256 103.542 27.839 93.848 21.4291C94.0939 30.6894 89.4059 36.2022 80.9703 36.2312ZM94.528 54.3757C96.0473 60.4094 98.5505 64.1859 103.687 64.1859C110.546 63.5203 110.184 53.6088 108.722 49.8034C105.293 55.9962 99.6502 56.4014 94.528 54.3757ZM66.1682 76.0362C64.9093 75.9205 64.4463 77.2372 64.9093 78.1488C65.3724 79.0603 66.6746 78.959 67.2389 78.0619C67.673 77.3819 67.3981 76.0796 66.1682 76.0362ZM99.9974 83.6471C102.848 83.6471 106.349 79.1182 106.74 76.2967C104.975 77.0636 102.819 77.9028 100.663 77.5555C98.2032 77.0636 98.073 76.8176 96.7708 75.0668C94.4701 78.6986 95.0055 83.6471 99.9974 83.6471ZM95.0345 89.7966C98.782 90.9396 101.546 86.3239 102.255 84.9493C99.7949 86.4686 95.0489 86.3963 94.0795 83.6905C93.1245 86.266 92.5891 88.6535 95.0345 89.7966ZM93.6888 94.5859C95.2804 94.311 96.2499 93.5875 96.5682 92.3866C94.6148 92.6904 92.5457 92.1116 91.7933 90.4766C90.7805 92.2563 91.0409 95.0489 93.7033 94.5859H93.6888ZM75.4864 89.4493C77.1793 91.0843 78.8144 94.1663 80.1311 96.1341C80.9847 97.4074 82.3304 96.9589 81.9831 96.2209C80.9124 93.9927 77.8594 90.1872 75.4864 89.4493ZM76.8321 88.3786C78.4816 90.0425 80.4783 92.0104 80.9124 92.5168C83.6037 95.7145 84.9349 97.581 85.6873 95.7145C85.8464 95.3383 84.3561 93.1245 82.1712 91.5039C80.4494 90.2451 78.9735 88.9863 76.8465 88.3786H76.8321ZM65.2711 117.795C67.8032 119.14 74.2276 117.592 75.1681 114.467C71.435 112.644 69.5974 111.211 66.8048 108.997C66.9061 113.164 66.472 114.51 65.2711 117.795ZM85.7596 109.099C83.8786 108.838 79.5378 109.113 76.7742 108.245C72.2887 106.812 69.8289 106.451 65.6328 104.685C67.2534 107.71 71.8401 110.444 73.3305 111.457C77.2083 114.785 84.9783 114.525 85.7451 109.099H85.7596Z" fill="#3D3B40" fill-opacity="100"/>
<path d="M321.294 102.769C323.411 102.769 325.641 102.391 327.606 101.068C330.479 99.1402 331.348 96.2677 331.348 93.8866C331.348 89.9559 329.647 87.1213 324.809 83.3417L323.713 82.4724C320.425 79.8646 319.48 78.4283 319.48 76.5008C319.48 74.0063 321.257 72.2299 324.205 72.2299C326.775 72.2299 327.946 73.4772 328.551 74.2709C329.383 75.3291 329.572 76.6142 329.572 76.9921C329.572 77.4835 329.685 77.748 329.987 77.748C330.29 77.748 330.441 77.4079 330.441 76.5008C330.441 73.2882 330.592 72.0787 330.592 71.5496C330.592 71.2472 330.403 71.1339 330.025 71.0583C329.005 70.7559 327.304 70.3402 324.734 70.3402C319.216 70.3402 315.55 73.6283 315.55 78.1638C315.55 81.5276 317.061 84.4 321.446 87.9528L323.26 89.4268C326.548 92.1102 327.153 94.0378 327.153 96.0409C327.153 98.2331 325.414 100.765 321.824 100.765C319.367 100.765 317.024 99.6315 316.117 96.5701C315.928 95.852 315.739 94.9827 315.739 94.4535C315.739 94.1134 315.701 93.7354 315.323 93.7354C315.02 93.7354 314.907 94.189 314.831 94.8315C314.794 95.5118 314.643 97.9685 314.643 100.236C314.643 101.143 314.756 101.37 315.398 101.635C317.099 102.428 318.913 102.731 321.219 102.731L321.294 102.769ZM340.835 90.1827C340.835 94.189 340.835 97.4772 340.646 99.2157C340.532 100.425 340.306 101.106 339.474 101.294C339.096 101.37 338.643 101.446 338.038 101.446C337.546 101.446 337.395 101.559 337.395 101.786C337.395 102.088 337.66 102.202 338.189 102.202C339.776 102.202 342.271 102.088 343.216 102.088C344.312 102.088 346.806 102.202 349.414 102.202C349.868 102.202 350.17 102.088 350.17 101.786C350.17 101.559 349.981 101.446 349.528 101.446C348.923 101.446 348.054 101.37 347.487 101.294C346.277 101.143 346.013 100.387 345.899 99.2535C345.748 97.4772 345.748 94.189 345.748 90.1827V82.8882C345.748 76.6142 345.748 75.4425 345.824 74.1197C345.899 72.6835 346.239 71.9654 347.298 71.7764C347.789 71.7008 348.091 71.663 348.507 71.663C348.923 71.663 349.15 71.5874 349.15 71.2472C349.15 71.0205 348.847 70.9071 348.318 70.9071C346.806 70.9071 344.463 71.0205 343.48 71.0205C342.309 71.0205 339.814 70.9071 338.302 70.9071C337.66 70.9071 337.357 70.9827 337.357 71.2472C337.357 71.5874 337.584 71.663 338 71.663C338.491 71.663 338.983 71.7008 339.436 71.8142C340.306 72.0032 340.721 72.7213 340.797 74.1197C340.872 75.4425 340.872 76.6142 340.872 82.8882V90.1827H340.835ZM369.294 91.3921C369.483 91.3921 369.597 91.4677 369.71 91.6945L372.885 100.463C373.074 100.954 372.809 101.332 372.507 101.408C372.091 101.446 371.94 101.521 371.94 101.786C371.94 102.088 372.432 102.088 373.15 102.126C376.324 102.202 379.235 102.202 380.671 102.202C382.145 102.202 382.485 102.126 382.485 101.786C382.485 101.483 382.296 101.446 381.956 101.446C381.465 101.446 380.898 101.408 380.293 101.294C379.461 101.03 378.29 100.463 376.778 96.7591C374.246 90.485 367.858 73.6283 366.913 71.3228C366.535 70.378 366.271 70 365.931 70C365.515 70 365.288 710035 364.797 71.663L354.819 97.6283C354.025 99.7071 353.269 101.106 351.417 101.332C351.115 101.37 350.548 101.408 350.17 101.408C349.868 101.408 349.679 101.483 349.679 101.748C349.679 102.088 349.906 102.164 350.435 102.164C352.513 102.164 354.706 102.05 355.121 102.05C356.369 102.05 358.069 102.164 359.354 102.164C359.808 102.164 360.035 102.088 360.035 101.748C360.035 101.483 359.921 101.408 359.43 101.408H358.825C357.578 101.408 357.238 100.879 357.238 100.123C357.238 99.6315 357.427 98.6488 357.843 97.5905L359.997 91.6945C360.072 91.4299 360.148 91.3543 360.375 91.3543H369.257L369.294 91.3921ZM361.206 89.3134C361.055 89.3134 361.017 89.2 361.055 89.011L364.721 78.8441C364.759 78.6929 364.835 78.4661 364.948 78.4661C365.061 78.4661 365.099 78.6551 365.137 78.8441L368.728 89.0488C368.765 89.1622 368.728 89.3134 368.539 89.3134H361.206ZM125.477 90.1827C125.477 94.189 125.477 97.4772 125.288 99.2157C125.175 100.425 124.91 101.106 124.117 101.294C123.739 101.37 123.285 101.446 122.68 101.446C122.189 101.446 122.038 101.559 122.038 101.786C122.038 102.088 122.302 102.202 122.831 102.202C124.419 102.202 126.913 102.088 127.858 102.088C128.917 102.088 131.449 102.202 134.057 102.202C134.51 102.202 134.813 102.088 134.813 101.786C134.813 101.559 134.624 101.446 134.17 101.446C133.565 101.446 132.696 101.37 132.129 101.294C130.92 101.143 130.655 100.387 130.542 99.2535C130.391 97.4772 130.391 94.189 130.391 90.1827V82.8882C130.391 76.6142 130.391 75.4425 130.466 74.1197C130.542 72.6835 130.882 71.9654 131.94 71.7764C132.431 71.7008 132.734 71.663 133.15 71.663C133.565 71.663 133.792 71.5874 133.792 71.2472C133.792 71.0205 133.49 70.9071 132.961 70.9071C131.449 70.9071 129.106 71.0205 128.123 71.0205C126.951 71.0205 124.457 70.9071 122.945 70.9071C122.302 70.9071 122 70.9827 122 71.2472C122 71.5874 122.227 71.663 122.643 71.663C123.134 71.663 123.625 71.7008 124.079 71.8142C124.948 72.0032 125.364 72.7213 125.439 74.1197C125.515 75.4425 125.515 76.6142 125.515 82.8882V90.1827H125.477ZM145.244 79.1843H145.357C146.076 79.978 150.498 85.1559 154.844 89.6157C158.964 93.8866 164.066 99.2913 166.561 101.786C167.014 102.239 167.468 102.693 167.921 102.693C168.299 102.693 168.45 102.315 168.45 101.408L168.904 75.2913C168.942 72.9858 169.244 72.1165 170.378 71.7764C170.869 71.663 171.172 71.663 171.587 71.663C172.079 71.663 172.306 71.5496 172.306 71.285C172.306 70.9449 171.89 70.9071 171.398 70.9071C169.471 70.9071 167.921 71.0205 167.506 71.0205C166.674 71.0205 164.746 70.9071 162.706 70.9071C162.101 70.9071 161.685 70.9449 161.685 71.285C161.685 71.5496 161.836 71.663 162.328 71.663C162.894 71.663 163.839 71.663 164.444 71.9276C165.389 72.3433 165.767 73.137 165.805 75.6693L166.183 94.2268H165.994C165.313 93.5465 159.946 87.6126 157.225 84.778C151.405 78.7685 145.357 72.0409 144.904 71.5118C144.224 70.7559 143.883 70.2268 143.43 70.2268C143.014 70.2268 142.901 70.7937 142.901 71.6252L142.561 96.1165C142.523 99.7071 142.372 100.917 141.313 101.257C140.746 101.408 140.028 101.446 139.537 101.446C139.121 101.446 138.894 101.521 138.894 101.786C138.894 102.164 139.272 102.202 139.764 102.202C141.843 102.202 143.694 102.088 144.072 102.088C144.828 102.088 146.416 102.202 149.024 102.202C149.591 102.202 149.931 102.126 149.931 101.786C149.931 101.521 149.704 101.446 149.25 101.446C148.608 101.446 147.852 101.408 147.172 101.143C146.378 100.841 145.849 99.7827 145.773 96.5701L145.32 79.1843H145.244ZM181.112 90.1827C181.112 94 181.112 97.2504 180.923 98.989C180.772 100.198 180.583 101.106 179.751 101.257C179.373 101.332 178.92 101.408 178.315 101.408C177.824 101.408 177.672 101.521 177.672 101.748C177.672 102.05 177.937 102.164 178.466 102.164C179.26 102.164 180.28 102.088 181.225 102.088C182.17 102.05 183.039 102.05 183.493 102.05C184.476 102.05 185.874 102.164 187.386 102.315C188.898 102.428 190.523 102.58 191.959 102.58C199.329 102.58 203.449 99.6315 205.301 97.7039C207.531 95.3606 209.647 91.3921 209.647 86.1764C209.647 81.263 207.757 77.8236 205.792 75.6693C201.446 70.9449 194.794 70.9449 189.843 70.9449C187.461 70.9449 184.967 71.0583 183.72 71.0583C182.624 71.0583 180.091 70.9449 177.975 70.9449C177.37 70.9449 177.106 71.0205 177.106 71.3228C177.106 71.6252 177.332 71.7008 177.786 71.7008C178.353 71.7008 179.033 71.7386 179.335 71.8142C180.658 72.1165 180.961 72.7591 181.036 74.1575C181.112 75.4803 181.112 76.652 181.112 82.926V90.2205V90.1827ZM186.101 82.2457C186.101 78.9953 186.101 75.3669 186.139 73.9685C186.139 73.515 186.252 73.2882 186.63 73.137C186.932 72.9858 188.406 72.8346 189.2 72.8346C192.299 72.8346 196.835 73.326 200.501 76.9543C202.202 78.6551 204.318 82.0567 204.318 87.3102C204.318 91.5811 203.524 95.3228 200.992 97.6283C198.611 99.7827 195.89 100.614 191.846 100.614C188.709 100.614 187.159 99.7449 186.63 98.9512C186.328 98.4976 186.214 96.8346 186.176 95.8142C186.139 95.0205 186.101 91.8457 186.101 87.4614V82.2457ZM230.057 102.769C240.148 102.769 246.535 95.285 246.535 85.7984C246.535 76.3118 240.375 70.3402 230.472 70.3402C218.529 70.3402 214.032 79.4866 214.032 86.5543C214.032 93.8866 218.643 102.769 230.057 102.769ZM231.72 100.69C224.085 100.69 219.512 93.8488 219.512 85.2693C219.512 74.9512 224.728 72.3055 229.301 72.3055C235.839 72.3055 240.98 78.0504 240.98 87.3102C240.98 99.2535 234.517 100.69 231.757 100.69H231.72ZM256.627 79.1843H256.74C257.458 79.978 261.88 85.1559 266.227 89.6157C270.346 93.8866 275.449 99.2913 277.943 101.786C278.397 102.239 278.85 102.693 279.304 102.693C279.682 102.693 279.833 102.315 279.833 101.408L280.287 75.2913C280.324 72.9858 280.665 72.1165 281.761 71.7764C282.252 71.663 282.554 71.663 282.97 71.663C283.461 71.663 283.688 71.5496 283.688 71.285C283.688 70.9449 283.31 70.9071 282.781 70.9071C280.816 70.9071 279.304 71.0205 278.888 71.0205C278.057 71.0205 276.129 70.9071 274.088 70.9071C273.483 70.9071 273.068 70.9449 273.068 71.285C273.068 71.5496 273.219 71.663 273.71 71.663C274.277 71.663 275.222 71.663 275.827 71.9276C276.772 72.3433 277.15 73.137 277.187 75.6693L277.603 94.2268H277.414C276.734 93.5465 271.367 87.6126 268.646 84.778C262.825 78.7685 256.778 72.0409 256.324 71.5118C255.644 70.7559 255.304 70.2268 254.85 70.2268C254.472 70.2268 254.321 70.7937 254.321 71.6252L253.981 96.1165C253.943 99.7071 253.792 100.917 252.734 101.257C252.167 101.408 251.449 101.446 250.957 101.446C250.542 101.446 250.315 101.521 250.315 101.786C250.315 102.164 250.693 102.202 251.184 102.202C253.263 102.202 255.115 102.088 255.493 102.088C256.249 102.088 257.836 102.202 260.406 102.202C260.973 102.202 261.313 102.126 261.313 101.786C261.313 101.521 261.087 101.446 260.633 101.446C259.991 101.446 259.235 101.408 258.554 101.143C257.761 100.841 257.232 99.7827 257.156 96.5701L256.702 79.1843H256.627ZM292.494 90.1827C292.494 94 292.494 97.2504 292.306 98.989C292.154 100.198 291.928 101.106 291.134 101.257C290.756 101.332 290.302 101.408 289.698 101.408C289.206 101.408 289.055 101.521 289.055 101.748C289.055 102.05 289.32 102.164 289.849 102.164C290.643 102.164 291.663 102.088 292.608 102.088C293.553 102.05 294.422 102.05 294.876 102.05C296.085 102.05 297.294 102.088 298.995 102.164C300.696 102.202 302.888 102.277 305.874 102.277C307.386 102.277 307.726 102.277 308.028 101.181C308.217 100.35 308.557 97.5528 308.557 96.5701C308.557 96.1543 308.557 95.8142 308.255 95.8142C307.991 95.8142 307.877 95.9654 307.802 96.4189C307.537 98.1197 307.046 98.989 306.025 99.4803C305.005 99.9717 303.304 99.9717 302.283 99.9717C298.239 99.9717 297.597 99.3669 297.521 96.4945C297.483 95.285 297.521 91.5055 297.521 90.0693V86.8189C297.521 86.5543 297.559 86.4032 297.748 86.4032C298.693 86.4032 302.624 86.4409 303.417 86.5165C304.891 86.6677 305.458 87.3102 305.647 88.1417C305.761 88.6709 305.761 89.2 305.798 89.6157C305.798 89.8425 305.874 89.9937 306.176 89.9937C306.554 89.9937 306.554 89.5402 306.554 89.2C306.554 88.8976 306.668 87.2724 306.706 86.4409C306.857 84.3244 307.008 83.6819 307.008 83.4173C307.008 83.1528 306.894 83.0772 306.743 83.0772C306.554 83.0772 306.365 83.3039 306.101 83.6063C305.723 84.022 305.156 84.1354 304.173 84.211C303.266 84.2866 298.693 84.2866 297.824 84.2866C297.597 84.2866 297.559 84.1354 297.559 83.8331V73.3638C297.559 73.0614 297.635 72.948 297.824 72.948C298.617 72.948 302.813 73.0236 303.493 73.0992C305.496 73.3638 305.874 73.8551 306.176 74.5732C306.365 75.0646 306.403 75.7827 306.403 76.0472C306.403 76.4252 306.479 76.6142 306.781 76.6142C307.046 76.6142 307.159 76.3496 307.197 76.1606C307.272 75.6693 307.348 73.8551 307.386 73.4394C307.499 71.5496 307.688 71.0583 307.688 70.7559C307.688 70.5669 307.65 70.378 307.461 70.378C307.272 70.378 307.046 70.4913 306.819 70.5291C306.517 70.6047 305.874 70.6803 305.118 70.7937C304.362 70.8315 296.425 70.8315 295.178 70.8315C294.611 70.8315 293.704 70.7937 292.683 70.7559C291.701 70.7559 290.529 70.7181 289.471 70.7181C288.866 70.7181 288.602 70.7937 288.602 71.0961C288.602 71.3984 288.828 71.474 289.282 71.474C289.849 71.474 290.529 71.5118 290.831 71.5874C292.154 71.8898 292.457 72.5323 292.532 73.9307C292.608 75.2535 292.608 76.4252 292.608 82.6992V89.9937L292.494 90.1827Z" fill="#3D3B40" fill-opacity="100"/>
<path d="M124.969 45.9732C124.969 51.9827 126.48 55.0441 128.521 56.9339C131.431 59.6551 135.249 59.8063 137.365 59.8063C139.935 59.8063 142.808 59.3528 145.643 56.8205C149.006 53.8346 149.422 48.9591 149.422 44.3858V39.9638C149.422 33.6898 149.422 32.5181 149.498 31.1953C149.573 29.7591 149.876 29.0409 150.972 28.852C151.463 28.7764 151.69 28.7386 152.143 28.7386C152.635 28.7386 152.861 28.663 152.861 28.3606C152.861 28.0583 152.597 27.9827 152.03 27.9827C150.48 27.9827 147.986 28.0961 147.494 28.0961C147.457 28.0961 144.962 27.9827 142.921 27.9827C142.354 27.9827 142.09 28.0583 142.09 28.3606C142.09 28.663 142.317 28.7386 142.77 28.7386C143.224 28.7386 143.866 28.7764 144.206 28.852C145.529 29.1543 145.831 29.7969 145.907 31.1953C145.983 32.5181 145.983 33.6898 145.983 39.9638V45.1417C145.983 49.4126 145.869 53.1165 143.677 55.422C142.09 57.085 139.935 57.652 138.197 57.652C136.836 57.652 135.022 57.5008 133.208 55.9512C131.243 54.2882 130.109 51.7559 130.109 45.7843V40.0016C130.109 33.7276 130.109 32.5559 130.184 31.2331C130.26 29.7969 130.6 29.0787 131.658 28.8898C132.15 28.8142 132.376 28.7764 132.83 28.7764C133.246 28.7764 133.472 28.7008 133.472 28.3984C133.472 28.0961 133.208 28.0205 132.603 28.0205C131.167 28.0205 128.672 28.1339 127.69 28.1339C126.48 28.1339 123.986 28.0205 121.869 28.0205C121.265 28.0205 121 28.0961 121 28.3984C121 28.7008 121.227 28.7764 121.68 28.7764C122.247 28.7764 122.928 28.8142 123.23 28.8898C124.553 29.1921 124.855 29.8346 124.931 31.2331C125.006 32.5559 125.006 33.7276 125.006 40.0016V46.0488L124.969 45.9732ZM162.386 36.1843H162.499C163.217 36.978 167.639 42.1559 171.986 46.6157C176.106 50.8866 181.208 56.2913 183.702 58.7858C184.156 59.2394 184.609 59.6929 185.063 59.6929C185.441 59.6929 185.592 59.315 185.592 58.4079L186.046 32.2913C186.083 29.9858 186.424 29.1165 187.52 28.7764C188.011 28.663 188.313 28.663 188.729 28.663C189.22 28.663 189.447 28.5496 189.447 28.285C189.447 27.9449 189.069 27.9071 188.54 27.9071C186.575 27.9071 185.063 28.0205 184.647 28.0205C183.816 28.0205 181.888 27.9071 179.847 27.9071C179.243 27.9071 178.827 27.9449 178.827 28.285C178.827 28.5496 178.978 28.663 179.469 28.663C180.036 28.663 180.981 28.663 181.586 28.9276C182.531 29.3433 182.909 30.137 182.946 32.6315L183.362 51.189H183.173C182.493 50.5087 177.126 44.5748 174.405 41.778C168.584 35.7685 162.537 29.0409 162.083 28.5118C161.403 27.7559 161.063 27.2268 160.609 27.2268C160.194 27.2268 160.08 27.7937 160.08 28.6252L159.74 53.1165C159.702 56.7071 159.551 57.9165 158.493 58.2567C157.926 58.4079 157.208 58.4835 156.717 58.4835C156.301 58.4835 156.074 58.5591 156.074 58.8236C156.074 59.2016 156.452 59.2394 156.943 59.2394C159.022 59.2394 160.874 59.126 161.252 59.126C162.008 59.126 163.595 59.2394 166.165 59.2394C166.732 59.2394 167.072 59.1638 167.072 58.8236C167.072 58.5969 166.846 58.4835 166.392 58.4835C165.75 58.4835 164.994 58.4457 164.313 58.1811C163.52 57.8787 162.991 56.8205 162.915 53.5701L162.461 36.1843H162.386ZM198.254 47.1827C198.254 51.189 198.254 54.4772 198.065 56.2157C197.951 57.4252 197.687 58.1055 196.893 58.2945C196.515 58.3701 196.061 58.4457 195.457 58.4457C194.965 58.4457 194.814 58.5591 194.814 58.7858C194.814 59.0882 195.079 59.2016 195.608 59.2016C197.195 59.2016 199.69 59.0882 200.635 59.0882C201.693 59.0882 204.225 59.2016 206.833 59.2016C207.287 59.2016 207.589 59.0882 207.589 58.7858C207.589 58.5968 207.4 58.4457 206.946 58.4457C206.342 58.4457 205.472 58.3701 204.906 58.2945C203.696 58.1433 203.431 57.3874 203.318 56.2535C203.167 54.4772 203.167 51.2268 203.167 47.1827V39.8882C203.167 33.6142 203.167 32.4425 203.243 31.1197C203.318 29.6835 203.658 28.9654 204.717 28.7764C205.208 28.7008 205.51 28.663 205.926 28.663C206.342 28.663 206.569 28.5874 206.569 28.2472C206.569 27.9827 206.266 27.9071 205.737 27.9071C204.225 27.9071 201.882 28.0205 200.899 28.0205C199.728 28.0205 197.233 27.9071 195.721 27.9071C195.079 27.9071 194.776 27.9827 194.776 28.2472C194.776 28.5874 195.003 28.663 195.419 28.663C195.91 28.663 196.402 28.7008 196.855 28.8142C197.724 29.0031 198.14 29.7213 198.216 31.1197C198.291 32.4425 198.291 33.6142 198.291 39.8882V47.1827H198.254ZM222.594 57.2362C223.35 59.2016 223.576 59.7685 224.106 59.7685C224.672 59.7685 224.899 59.0882 225.92 56.7071C226.789 54.6283 228.679 50.1307 231.211 44.0835C233.365 38.9811 234.424 36.7512 235.973 32.8583C237.031 30.2126 237.636 29.4945 238.165 29.1165C238.883 28.6252 239.715 28.6252 240.131 28.6252C240.546 28.6252 240.773 28.5496 240.773 28.2472C240.773 27.9449 240.471 27.8693 239.942 27.8693C238.732 27.8693 236.88 27.9827 236.2 27.9827C235.671 27.9827 234.008 27.8693 232.005 27.8693C231.249 27.8693 230.909 27.9449 230.909 28.285C230.909 28.5874 231.211 28.6252 231.589 28.6252C232.118 28.6252 232.685 28.663 233.176 28.8142C233.517 28.9276 233.706 29.2677 233.706 29.6079C233.706 29.9858 233.554 30.5906 233.328 31.1575C232.383 33.8787 227.205 47.2205 225.504 51.7559H225.353L218.512 32.9717C217.945 31.4976 217.605 30.326 217.605 29.7969C217.605 29.4189 217.718 29.1165 218.02 28.9276C218.323 28.663 218.928 28.6252 219.57 28.6252C219.91 28.6252 220.175 28.5496 220.175 28.2472C220.175 27.9449 219.721 27.8693 219.268 27.8693C217.265 27.8693 215.375 27.9827 214.392 27.9827C212.994 27.9827 210.726 27.8693 208.609 27.8693C208.005 27.8693 207.589 27.9071 207.589 28.2472C207.589 28.5118 207.702 28.6252 208.08 28.6252C208.383 28.6252 209.025 28.6252 209.63 28.7764C211.066 29.1921 211.746 29.6457 212.654 31.9134L222.669 57.1984L222.594 57.2362ZM245.044 47.1827C245.044 51 245.044 54.2504 244.855 55.989C244.704 57.1984 244.477 58.1055 243.683 58.2567C243.343 58.3323 242.852 58.4079 242.247 58.4079C241.756 58.4079 241.605 58.5213 241.605 58.748C241.605 59.0504 241.869 59.1638 242.398 59.1638C243.192 59.1638 244.213 59.0882 245.157 59.0882C246.102 59.0504 246.972 59.0504 247.425 59.0504C248.635 59.0504 249.844 59.0882 251.545 59.1638C253.246 59.2016 255.438 59.2772 258.424 59.2772C259.935 59.2772 260.313 59.2772 260.578 58.1811C260.767 57.3496 261.107 54.5528 261.107 53.6079C261.107 53.1921 261.107 52.852 260.805 52.852C260.54 52.852 260.427 53.0032 260.351 53.4567C260.087 55.1575 259.595 56.0268 258.575 56.5181C257.554 57.0094 255.854 57.0094 254.833 57.0094C250.789 57.0094 250.146 56.4047 250.071 53.5323C250.033 52.3228 250.071 48.5433 250.071 47.1071V43.8189C250.071 43.5921 250.109 43.4031 250.298 43.4031C251.243 43.4031 255.173 43.4409 255.967 43.5165C257.441 43.6677 258.008 44.3102 258.197 45.1417C258.31 45.6709 258.31 46.2378 258.348 46.6157C258.348 46.8047 258.424 46.9937 258.726 46.9937C259.104 46.9937 259.104 46.5402 259.104 46.2C259.104 45.8976 259.217 44.2724 259.255 43.4409C259.406 41.3244 259.557 40.6819 259.557 40.4173C259.557 40.1906 259.444 40.0772 259.293 40.0772C259.104 40.0772 258.915 40.2661 258.65 40.6063C258.272 41.022 257.706 41.1354 256.723 41.211C255.816 41.2866 251.243 41.2866 250.373 41.2866C250.146 41.2866 250.109 41.1354 250.109 40.8331V30.3638C250.109 30.0614 250.184 29.948 250.373 29.948C251.167 29.948 255.362 30.0236 256.043 30.0992C258.046 30.3638 258.424 30.8551 258.726 31.5732C258.915 32.0646 258.953 32.7827 258.953 33.0472C258.953 33.4252 259.028 33.6142 259.331 33.6142C259.595 33.6142 259.709 33.3496 259.746 33.1606C259.822 32.6693 259.898 30.8551 259.935 30.4394C260.049 28.5496 260.238 28.0583 260.238 27.7559C260.238 27.5669 260.2 27.378 260.011 27.378C259.822 27.378 259.557 27.4913 259.368 27.5291C259.066 27.6047 258.424 27.6803 257.668 27.7937C256.912 27.8315 248.975 27.8315 247.728 27.8315C247.161 27.8315 246.254 27.7937 245.233 27.7559C244.25 27.7559 243.079 27.7181 242.02 27.7181C241.416 27.7181 241.151 27.7937 241.151 28.0961C241.151 28.3984 241.378 28.474 241.831 28.474C242.398 28.474 243.079 28.5118 243.381 28.5874C244.704 28.8898 245.006 29.5323 245.082 30.9307C245.157 32.2535 245.157 33.4252 245.157 39.6992V46.9937L245.044 47.1827ZM270.178 47.1827C270.178 51 270.178 54.2504 269.989 55.989C269.838 57.1984 269.649 58.1055 268.817 58.2567C268.439 58.3323 267.986 58.4079 267.381 58.4079C266.89 58.4079 266.739 58.5213 266.739 58.748C266.739 59.0504 267.003 59.1638 267.532 59.1638C269.12 59.1638 271.614 59.0504 272.37 59.0504C272.975 59.0504 275.923 59.1638 278.228 59.1638C278.757 59.1638 279.022 59.0504 279.022 58.748C279.022 58.5591 278.871 58.4079 278.531 58.4079C278.039 58.4079 277.17 58.3323 276.565 58.2567C275.356 58.1055 275.129 57.1984 275.016 55.989C274.827 54.2504 274.827 51 274.827 47.1449V46.578C274.827 46.3134 274.94 46.2378 275.129 46.2378L278.606 46.3134C278.871 46.3134 279.135 46.3512 279.324 46.6157C279.854 47.2205 281.668 50.0551 283.255 52.3228C285.485 55.4976 286.997 57.463 288.698 58.4079C289.718 58.9748 290.739 59.2016 292.969 59.2016H296.748C297.239 59.2016 297.504 59.126 297.504 58.7858C297.504 58.5968 297.353 58.4457 297.013 58.4457C296.71 58.4457 296.332 58.4079 295.879 58.3323C295.274 58.2189 293.649 57.9165 291.419 55.5354C289.076 52.9654 286.317 49.2992 282.802 44.6504C286.808 41.2488 288.055 38.452 288.055 35.3906C288.055 32.6315 286.468 30.515 285.334 29.7213C283.18 28.2094 280.534 27.9449 278.002 27.9449C276.754 27.9449 273.731 28.0583 272.408 28.0583C271.576 28.0583 269.082 27.9449 266.965 27.9449C266.361 27.9449 266.096 28.0205 266.096 28.3228C266.096 28.6252 266.323 28.7008 266.776 28.7008C267.343 28.7008 268.024 28.7386 268.326 28.8142C269.649 29.1165 269.951 29.7591 270.027 31.1575C270.102 32.4803 270.102 33.652 270.102 39.926V47.2205L270.178 47.1827ZM274.865 30.5906C274.865 30.2504 274.94 30.0992 275.243 30.0236C275.658 29.9102 276.339 29.8724 277.359 29.8724C279.702 29.8724 283.444 31.5732 283.444 37.4315C283.444 40.8331 282.272 42.7228 281.101 43.6299C280.383 44.1591 279.854 44.348 278.266 44.348C277.283 44.348 276.074 44.2346 275.243 43.9323C274.978 43.8189 274.865 43.6299 274.865 43.1764V30.5906ZM303.249 59.7685C305.365 59.7685 307.595 59.3906 309.561 58.0677C312.433 56.1402 313.302 53.2677 313.302 50.8866C313.302 46.9559 311.602 44.0835 306.764 40.3417L305.668 39.4724C302.38 36.8646 301.435 35.4283 301.435 33.5008C301.435 31.0063 303.211 29.2299 306.159 29.2299C308.729 29.2299 309.901 30.4772 310.506 31.2709C311.337 32.3669 311.526 33.652 311.526 33.9921C311.526 34.4835 311.639 34.748 311.942 34.748C312.244 34.748 312.395 34.4079 312.395 33.5008C312.395 30.2882 312.546 29.0787 312.546 28.5496C312.546 28.2472 312.357 28.1339 311.98 28.0583C310.959 27.7559 309.258 27.3402 306.688 27.3402C301.17 27.3402 297.504 30.6283 297.504 35.1638C297.504 38.5276 299.016 41.4 303.4 44.9528L305.214 46.4268C308.502 49.1102 309.107 51 309.107 53.0409C309.107 55.2331 307.369 57.7654 303.778 57.7654C301.321 57.7654 298.978 56.6315 298.071 53.5701C297.882 52.852 297.693 51.9827 297.693 51.4535C297.693 51.1134 297.655 50.7354 297.277 50.7354C296.975 50.7354 296.824 51.189 296.786 51.7937C296.748 52.474 296.597 54.9307 296.597 57.1984C296.597 58.1055 296.71 58.2945 297.353 58.5968C299.054 59.3906 300.868 59.6929 303.173 59.6929L303.249 59.7685ZM322.789 47.1827C322.789 51.189 322.789 54.4772 322.6 56.2157C322.487 57.4252 322.222 58.1055 321.428 58.2945C321.05 58.3701 320.597 58.4457 319.992 58.4457C319.501 58.4457 319.35 58.5591 319.35 58.7858C319.35 59.0882 319.614 59.2016 320.143 59.2016C321.731 59.2016 324.225 59.0882 325.17 59.0882C326.228 59.0882 328.761 59.2016 331.368 59.2016C331.822 59.2016 332.124 59.0882 332.124 58.7858C332.124 58.5968 331.935 58.4457 331.482 58.4457C330.877 58.4457 330.008 58.3701 329.441 58.2945C328.231 58.1433 327.967 57.3874 327.854 56.2535C327.702 54.4772 327.702 51.2268 327.702 47.1827V39.8882C327.702 33.6142 327.702 32.4425 327.778 31.1197C327.854 29.6835 328.194 28.9654 329.252 28.7764C329.743 28.7008 330.046 28.663 330.461 28.663C330.877 28.663 331.104 28.5874 331.104 28.2472C331.104 27.9827 330.802 27.9071 330.272 27.9071C328.761 27.9071 326.417 28.0205 325.435 28.0205C324.263 28.0205 321.769 27.9071 320.257 27.9071C319.614 27.9071 319.312 27.9827 319.312 28.2472C319.312 28.5874 319.539 28.663 319.954 28.663C320.446 28.663 320.937 28.7008 321.391 28.8142C322.26 29.0031 322.676 29.7213 322.751 31.1197C322.827 32.4425 322.827 33.6142 322.827 39.8882V47.1827H322.789ZM346.071 47.1827C346.071 51 346.071 54.2504 345.882 55.989C345.768 57.1984 345.542 58.1055 344.71 58.2567C344.332 58.3323 343.879 58.4079 343.274 58.4079C342.783 58.4079 342.632 58.5213 342.632 58.748C342.632 59.0504 342.896 59.1638 343.425 59.1638C345.013 59.1638 347.507 59.0504 348.452 59.0504C349.548 59.0504 352.08 59.1638 354.688 59.1638C355.142 59.1638 355.444 59.0504 355.444 58.748C355.444 58.5591 355.255 58.4079 354.802 58.4079C354.197 58.4079 353.328 58.3323 352.761 58.2567C351.551 58.1055 351.324 57.1984 351.211 56.0268C351.022 54.2504 351.022 50.9622 351.022 47.1827V30.2126L356.049 30.326C359.602 30.4016 360.66 31.5732 360.735 32.6315L360.773 33.085C360.811 33.6898 360.887 33.9165 361.189 33.9165C361.416 33.9165 361.491 33.652 361.567 33.2362C361.567 32.178 361.68 29.3055 361.68 28.4362C361.68 27.8315 361.643 27.5669 361.378 27.5669C361.227 27.5669 360.887 27.6425 360.32 27.7559C359.715 27.8315 358.846 27.9449 357.561 27.9449H341.8C340.477 27.9449 338.965 27.8693 337.831 27.7559C336.849 27.6803 336.433 27.2646 336.131 27.2646C335.904 27.2646 335.753 27.5291 335.639 28.0583C335.564 28.3984 334.808 32.1402 334.808 32.8205C334.808 33.274 334.883 33.5008 335.186 33.5008C335.413 33.5008 335.564 33.3496 335.639 33.0094C335.715 32.6693 335.904 32.178 336.32 31.5732C336.924 30.6661 337.869 30.4394 340.175 30.3638L346.109 30.2126V47.1827H346.071ZM377.101 48.3921C377.29 48.3921 377.403 48.4677 377.479 48.6945L380.654 57.463C380.843 57.9543 380.578 58.3323 380.313 58.4079C379.898 58.4457 379.746 58.5213 379.746 58.7858C379.746 59.0882 380.238 59.0882 380.956 59.126C384.131 59.2016 387.041 59.2016 388.477 59.2016C389.951 59.2016 390.291 59.126 390.291 58.7858C390.291 58.4835 390.102 58.4457 389.762 58.4457C389.271 58.4457 388.704 58.4079 388.099 58.2945C387.268 58.0299 386.096 57.463 384.584 53.7591C382.052 47.485 375.665 30.6283 374.72 28.3228C374.304 27.378 374.077 27 373.737 27C373.321 27 373.094 27.4535 372.641 28.663L362.663 54.6283C361.869 56.7071 361.113 58.1055 359.261 58.3701C358.959 58.4079 358.392 58.4457 358.014 58.4457C357.712 58.4457 357.523 58.5213 357.523 58.7858C357.523 59.126 357.75 59.2016 358.279 59.2016C360.357 59.2016 362.55 59.0882 362.965 59.0882C364.213 59.0882 365.913 59.2016 367.198 59.2016C367.652 59.2016 367.879 59.126 367.879 58.7858C367.879 58.5591 367.765 58.4457 367.274 58.4457H366.669C365.422 58.4457 365.082 57.9165 365.082 57.1606C365.082 56.6693 365.271 55.6866 365.687 54.6283L367.841 48.7323C367.917 48.4677 367.992 48.3921 368.219 48.3921H377.101ZM369.013 46.3134C368.861 46.3134 368.824 46.2 368.861 46.011L372.528 35.8441C372.565 35.6929 372.641 35.4661 372.754 35.4661C372.868 35.4661 372.906 35.6551 372.943 35.8441L376.534 46.0488C376.572 46.1622 376.534 46.3134 376.345 46.3134H369.013ZM397.699 59.7685C399.816 59.7685 402.046 59.3906 404.011 58.0677C406.883 56.1402 407.753 53.2677 407.753 50.8866C407.753 46.9559 406.052 44.0835 401.214 40.3417L400.118 39.4724C396.83 36.8646 395.885 35.4283 395.885 33.5008C395.885 31.0063 397.661 29.2299 400.609 29.2299C403.18 29.2299 404.351 30.4772 404.956 31.2709C405.787 32.3669 405.976 33.652 405.976 33.9921C405.976 34.4835 406.09 34.748 406.392 34.748C406.694 34.748 406.846 34.4079 406.846 33.5008C406.846 30.2882 406.997 29.0787 406.997 28.5496C406.997 28.2472 406.808 28.1339 406.43 28.0583C405.409 27.7559 403.709 27.3402 401.139 27.3402C395.62 27.3402 391.954 30.6283 391.954 35.1638C391.954 38.5276 393.466 41.4 397.85 44.9528L399.665 46.4268C402.953 49.1102 403.557 51 403.557 53.0409C403.557 55.2331 401.819 57.7654 398.228 57.7654C395.772 57.7654 393.428 56.6315 392.521 53.5701C392.332 52.852 392.143 51.9827 392.143 51.4535C392.143 51.1134 392.106 50.7354 391.728 50.7354C391.425 50.7354 391.312 51.189 391.236 51.7937C391.198 52.474 391.047 54.9307 391.047 57.1984C391.047 58.1055 391.161 58.2945 391.803 58.5968C393.504 59.3906 395.318 59.6929 397.624 59.6929L397.699 59.7685Z" fill="#3D3B40" fill-opacity="100"/>
</svg>
