<svg width="286" height="120" viewBox="0 0 286 120" fill="none" xmlns="http://www.w3.org/2000/svg">
<path fill-rule="evenodd" clip-rule="evenodd" d="M221.475 37.0177C219.263 37.0472 218.319 38.9937 218.29 41.5891C218.26 44.1256 218.113 50.0537 218.408 52.3837C218.614 53.9763 219.617 54.8611 220.649 55.4215C222.301 56.2768 225.014 56.3063 226.872 55.333C227.698 54.9201 229.291 54.0353 229.35 52.2362C229.438 48.933 229.202 43.5652 229.232 40.9403C229.261 39.0232 228.288 36.8997 225.633 36.9882C224.395 37.0177 223.038 36.9882 221.475 37.0177ZM217.965 30.7946C213.128 30.7651 209.56 34.9236 209.501 40.5569C209.471 44.0076 209.56 48.4316 209.501 52.2067C209.412 57.9579 213.512 61.969 218.142 61.9985C220.944 62.028 226.489 61.8805 228.848 62.087C232.83 62.3819 237.991 57.5155 237.932 53.1505C237.844 48.4906 237.844 43.6242 237.903 40.3209C237.991 35.9854 235.455 31.237 229.645 30.7061C226.843 30.4406 221.829 30.8241 217.965 30.7946ZM136.328 49.9062C139.247 50.0832 145.677 50.0242 147.624 49.9947C152.402 49.9062 153.788 48.6085 154.908 46.2786C156.531 42.9458 156.501 36.6048 153.375 33.39C151.959 31.9448 150.661 30.6471 147.122 30.4996C143.76 30.3817 139.542 30.3817 136.446 30.6176C129.662 31.119 127.362 35.8379 127.657 42.7984C127.686 45.8362 127.952 49.2574 127.893 52.2067C127.775 55.8049 128.453 57.7515 130.429 59.6096C132.494 61.5856 134.411 62.1165 136.829 62.087C143.2 61.9985 147.771 61.9985 151.93 61.9985C155.705 61.9985 155.941 59.5506 155.882 58.5183C155.764 55.8344 154.407 55.2445 152.962 55.1561C149.334 54.9496 144.91 55.3625 140.752 55.3035C137.802 55.274 136.416 53.9763 136.328 49.9062ZM136.505 42.7984C139.424 42.8868 143.966 42.8868 146.208 42.8278C147.063 42.7984 147.24 42.238 147.27 41.9136C147.417 40.4094 147.447 38.6398 146.444 37.755C145.942 37.3126 145.087 36.8997 144.025 36.8702C142.433 36.8407 139.66 36.8702 138.658 36.9587C137.035 37.0766 136.534 37.873 136.534 38.9642C136.534 39.9375 136.475 41.4712 136.505 42.7984ZM181.305 20H183.252C185.11 20 186.643 21.5337 186.643 23.3917V44.273L195.934 32.6821C197.084 31.237 198.411 30.7651 200.004 30.5881C201.331 30.4701 203.101 30.5881 204.31 30.6471C205.283 30.6766 206.079 31.119 204.988 32.4757L195.049 44.9514L205.873 59.993C206.551 60.9368 206.581 62.1755 204.133 62.028C203.366 61.969 201.419 62.028 199.089 61.969C197.526 61.91 196.494 60.8188 195.757 59.7275L186.643 46.603V58.4888C186.643 60.3469 185.11 61.851 183.252 61.851H181.305C179.447 61.851 177.913 60.3469 177.913 58.4888V23.3917C177.913 21.5337 179.447 20 181.305 20ZM165.615 20H167.591C169.449 20 170.953 21.5337 170.953 23.3917V58.4888C170.953 60.3469 169.449 61.851 167.591 61.851H165.615C163.756 61.851 162.223 60.3469 162.223 58.4888V23.3917C162.223 21.5337 163.756 20 165.615 20ZM130.458 23.3917V24.9549C130.458 26.4295 129.249 27.6093 127.775 27.6093H118.573V58.4888C118.573 60.3469 117.068 61.851 115.21 61.851H113.234C111.376 61.851 109.843 60.3469 109.843 58.4888V27.6093H100.051C98.5762 27.6093 97.3669 26.4295 97.3669 24.9549V23.3917C97.3669 21.9171 98.5762 20.7373 100.051 20.7373H127.775C129.249 20.7373 130.458 21.9171 130.458 23.3917ZM244.804 34.7467C244.804 42.8573 244.775 50.9975 244.775 59.1082C244.775 60.9662 246.308 62.4999 248.166 62.4999H250.113C251.971 62.4999 253.505 60.9662 253.505 59.1082C253.505 52.2067 253.505 45.3643 253.564 38.4628C253.593 37.4896 255.363 37.1356 256.307 37.1356C259.433 37.1651 260.583 38.8168 260.583 41.0877C260.583 47.0749 260.642 53.0915 260.642 59.1082C260.642 60.9662 262.146 62.4999 264.004 62.4999H265.98C267.838 62.4999 269.372 60.9662 269.372 59.1082C269.372 52.5606 269.284 46.0426 269.254 39.4951C269.254 37.4306 271.083 36.7227 272.882 37.1356C276.185 37.873 276.067 41.1172 276.067 43.6537V59.1082C276.067 60.9662 277.571 62.4999 279.429 62.4999H281.405C283.263 62.4999 284.797 60.9662 284.797 59.1082C284.797 52.8851 284.974 46.5145 284.797 40.3209C284.532 30.4701 276.067 29.6443 270.316 30.6471C267.661 31.0895 265.892 33.0361 265.243 32.1807C264.004 30.6176 262.648 30.3817 258.135 30.5881C254.832 30.5586 253.003 32.1807 252.797 31.5614C252.708 31.2665 252.207 30.7356 251.499 30.6471C250.408 30.5291 248.992 30.4406 247.429 30.6471C246.013 30.8241 244.804 32.1218 244.804 34.7467Z" fill="#3D3B40"/>
<path fill-rule="evenodd" clip-rule="evenodd" d="M243.3 71.053H244.686C245.482 71.053 246.161 71.7314 246.161 72.5277V73.206C246.161 74.0319 245.482 74.6807 244.686 74.6807H243.3C242.474 74.6807 241.796 74.0319 241.796 73.206V72.5277C241.796 71.7314 242.474 71.053 243.3 71.053ZM243.418 76.3618H244.303C245.364 76.3618 246.249 77.2466 246.249 78.3084V91.4624C246.249 92.5242 245.364 93.409 244.303 93.409H243.418C242.356 93.409 241.471 92.5242 241.471 91.4624V78.3084C241.471 77.2466 242.356 76.3618 243.418 76.3618ZM121.168 90.0467C120.195 90.0467 117.452 90.1352 116.803 90.0762C115.269 89.8993 114.532 89.1324 114.385 86.8615C114.208 84.325 114.385 79.842 114.473 73.5895C114.503 71.4364 113.618 71.112 112.055 71.0825C110.58 71.053 109.548 71.171 109.607 73.6189C109.666 79.6651 109.725 84.6495 109.754 87.8642C109.754 91.8163 111.465 92.9666 114.562 93.4385C117.806 93.9104 120.667 93.6449 122.82 93.4975C126.624 93.232 128.187 90.8431 128.128 86.773C128.069 83.6762 128.01 77.0107 128.069 72.6752C128.128 71.289 127.096 71.112 125.975 71.112C124.707 71.0825 123.675 71.0235 123.586 72.7636C123.439 76.7157 123.557 83.9711 123.528 86.0061C123.586 87.8347 123.645 90.0762 121.168 90.0467ZM174.197 93.468C177.854 93.3795 177.736 91.7573 179.653 86.3306C180.361 84.3545 181.747 80.3729 182.308 78.7508C182.662 77.6595 181.983 76.7452 180.863 76.6568C179.417 76.5388 178.592 77.0402 178.031 78.3084C176.674 81.1987 175.141 85.9767 173.902 89.1324C172.398 85.2393 170.923 81.3462 169.449 77.4236C168.888 76.1259 167.532 76.2144 166.529 76.5093C165.526 76.7747 165.025 77.5416 165.261 78.4559C165.909 80.9333 167.944 86.6845 169.331 90.2237C170.068 92.1703 170.658 93.5269 174.197 93.468ZM207.171 79.2817C207.171 84.9149 207.23 89.044 207.2 91.2265C207.2 92.7011 207.996 93.409 209.353 93.468C210.533 93.5269 211.713 92.9076 211.654 91.7868C211.831 89.2799 211.713 85.6817 211.713 80.9923C211.713 80.137 213.099 80.1665 213.63 80.1075C215.429 79.96 216.432 80.3139 217.995 80.019C218.673 79.8715 219.322 78.4264 218.879 77.4531C218.585 76.8337 217.729 76.4208 216.166 76.4208C213.925 76.3323 213.01 76.8927 211.919 77.4531C211.359 77.7775 211.418 77.2466 211.182 76.8337C210.857 76.2439 209.913 76.4503 209.235 76.4798C207.731 76.5388 207.171 77.0992 207.171 79.2817ZM230.942 86.6255C231.355 86.655 231.974 86.8909 232.004 88.4541C232.033 89.4569 231.621 89.6338 230.411 89.6633C228.907 89.6928 225.869 89.4864 223.805 89.7813C222.507 89.9877 222.006 90.6366 222.006 91.6689C222.006 92.8486 222.891 93.232 224.07 93.4385C226.518 93.8514 229.88 93.4975 231.296 93.4975C234.245 93.468 236.723 91.6689 236.546 88.0117C236.398 84.5905 235.012 83.5287 232.21 83.2338C230.647 83.0863 229.261 83.3517 228.052 83.1748C226.577 82.9388 226.105 82.349 226.223 81.0218C226.312 79.9895 227.049 80.078 227.55 80.0485C229.851 79.901 232.476 80.196 234.128 80.1075C235.366 80.019 235.691 78.8983 235.691 78.2199C235.661 77.2761 235.661 76.4798 233.538 76.4503C232.446 76.4503 228.701 76.3618 227.315 76.3913C223.864 76.4208 221.829 77.866 221.593 81.0513C221.534 81.7591 221.563 82.3785 221.593 82.9388C221.77 84.8264 223.303 86.3011 226.636 86.5075C228.465 86.6255 229.32 86.3601 230.942 86.6255ZM254.507 88.3066C254.507 89.8108 254.743 90.6661 255.451 91.5214C257.309 93.8514 260.966 93.9693 264.211 93.35C265.125 93.173 265.243 92.0523 265.243 91.1675C265.243 90.6956 265.272 89.8698 264.211 90.0467C263.621 90.1352 262.677 90.2827 261.379 90.2237C259.964 90.1647 259.108 89.6633 259.108 87.8937V80.137H263.06C263.798 80.137 264.388 79.5766 264.388 78.8393V77.925C264.388 77.2171 263.798 76.6273 263.06 76.6273H259.108L259.079 72.3507C259.079 71.348 258.43 70.9351 256.867 70.9351C256.306 70.9351 254.625 70.8761 254.625 71.8199L254.596 76.6273H251.794C251.057 76.6273 250.496 77.2171 250.496 77.925V78.8393C250.496 79.5766 251.057 80.137 251.794 80.137H254.566L254.507 88.3066ZM281.081 93.4975C281.14 95.3555 280.697 96.2993 279.488 96.3583C277.453 96.4763 274.799 96.3583 273.147 96.3583C272.439 96.3583 271.319 96.8597 271.348 98.1574C271.378 99.3076 272.174 99.9565 273.088 99.986C275.182 100.045 277.571 99.8975 279.695 99.927C283.204 99.927 285.446 98.2459 285.505 94.7657C285.593 90.5481 285.859 80.0485 285.741 77.9545C285.652 76.6568 284.414 76.5093 283.529 76.4798C282.172 76.4798 281.199 76.5978 281.169 77.7775C281.11 79.7241 281.228 84.1481 281.228 90.0467C279.429 90.0467 277.984 90.1647 276.981 89.8993C275.684 89.5453 274.946 88.2476 274.946 86.5075C274.976 84.7674 275.064 82.054 274.976 78.3084C274.946 77.0402 274.592 76.5093 272.793 76.4503C271.555 76.3913 270.67 76.7452 270.581 77.8365C270.463 79.2227 270.463 85.5932 270.581 88.8965C270.67 91.9933 273.324 93.5564 276.097 93.5564C278.043 93.5564 279.636 93.4975 281.081 93.4975ZM190.802 86.8909C192.335 86.9794 195.698 86.9499 196.73 86.9204C199.237 86.8909 199.974 86.2126 200.564 84.9739C201.419 83.2338 201.419 79.901 199.768 78.1904C199.001 77.4236 198.323 76.7452 196.465 76.6863C194.695 76.6273 192.483 76.6273 190.861 76.7452C187.292 77.0107 186.083 79.4881 186.23 83.1453C186.23 84.7379 186.407 86.537 186.348 88.1002C186.289 89.9877 186.643 91.02 187.705 91.9933C188.796 93.0256 189.77 93.3205 191.038 93.291C194.4 93.232 196.818 93.232 199.001 93.232C200.977 93.232 201.095 91.9638 201.095 91.4034C201.036 89.9877 200.299 89.6928 199.561 89.6633C197.644 89.5453 195.314 89.7518 193.132 89.7223C191.569 89.6928 190.831 89.0145 190.802 86.8909ZM190.89 83.1453C192.424 83.1748 194.813 83.2043 195.993 83.1748C196.435 83.1453 196.524 82.8504 196.553 82.6734C196.641 81.9066 196.641 80.9628 196.111 80.4909C195.845 80.2549 195.403 80.0485 194.842 80.019C193.987 80.019 192.542 80.0485 192.011 80.078C191.156 80.137 190.92 80.5499 190.89 81.1397C190.89 81.6411 190.89 82.4669 190.89 83.1453ZM134.588 79.0162C134.588 83.2338 134.558 87.4513 134.558 91.6394C134.558 92.6127 135.531 93.409 136.682 93.409H137.891C139.041 93.409 139.129 92.6127 139.129 91.6394C139.129 88.0707 139.129 84.5315 139.159 80.9628C139.159 80.019 141.312 80.078 141.872 80.078C143.819 80.078 144.999 80.4614 144.999 82.4669C145.028 85.5637 145.028 88.69 145.028 91.8163C145.028 92.7601 145.382 93.409 146.532 93.409H147.771C148.921 93.409 149.865 92.6127 149.865 91.6394C149.865 88.2476 149.865 85.3868 149.777 81.9951C149.718 79.6651 148.685 77.0107 145.441 76.4798C144.35 76.2733 141.076 76.4503 139.69 76.9812C139.306 77.1287 138.923 77.1581 138.54 76.8927C137.95 76.4503 137.212 76.3618 136.239 76.4798C135.354 76.5683 134.588 77.689 134.588 79.0162ZM157.474 71.053H158.861C159.686 71.053 160.365 71.7314 160.365 72.5277V73.206C160.365 74.0319 159.686 74.6807 158.861 74.6807H157.474C156.678 74.6807 156 74.0319 156 73.206V72.5277C156 71.7314 156.678 71.053 157.474 71.053ZM157.622 76.3618H158.507C159.568 76.3618 160.424 77.2466 160.424 78.3084V91.4624C160.424 92.5242 159.568 93.409 158.507 93.409H157.622C156.56 93.409 155.675 92.5242 155.675 91.4624V78.3084C155.675 77.2466 156.56 76.3618 157.622 76.3618Z" fill="#3D3B40"/>
<path fill-rule="evenodd" clip-rule="evenodd" d="M55.398 80.0252L55.4426 117.329C55.9554 117.284 59.0325 115.79 59.6568 115.456C63.7818 113.36 67.1264 110.907 70.2703 107.785C76.5582 101.497 81.0845 92.8238 82.0879 83.0353C82.4893 79.2224 82.3109 74.9637 82.3109 71.0393C82.3109 66.9812 82.3109 62.9008 82.3109 58.8427C82.3109 56.8136 82.3332 54.7846 82.3332 52.7555C82.3332 50.7711 82.4224 48.5636 82.3109 46.646C79.9251 46.5123 77.1825 46.6237 74.7521 46.6237C72.2325 46.6237 69.7129 46.6237 67.1933 46.6237C64.7406 46.6237 62.4886 46.4454 60.3703 47.3596C54.1271 50.0575 55.3534 58.5974 55.3534 65.0413C55.3534 66.7805 55.2419 79.4454 55.398 80.0252Z" fill="#3D3B40"/>
<path fill-rule="evenodd" clip-rule="evenodd" d="M26.9021 117.329L26.9689 80.3819C27.1027 79.9359 26.9912 59.8906 26.9912 57.5717C26.9912 55.1413 26.7683 53.1123 25.8318 51.1501C23.5575 46.3785 19.3433 46.6237 15.1514 46.6237C12.6318 46.6237 10.1122 46.6237 7.61487 46.6237C5.22905 46.6237 2.375 46.49 0.0560732 46.646C-0.0554135 48.5636 0.0337758 50.7933 0.0337758 52.7555V71.0393C0.0337758 79.5346 -0.211495 85.3988 2.57567 92.913C5.74189 101.453 11.7176 108.7 18.8304 113.248C20.1014 114.051 25.7649 117.262 26.9021 117.329Z" fill="#3D3B40"/>
<path fill-rule="evenodd" clip-rule="evenodd" d="M41.0608 7.60339C41.2392 8.29461 41.1277 18.8635 41.1277 20.5135C41.1277 24.8615 41.1277 29.2095 41.1277 33.5352C40.927 33.6913 41.2169 33.6467 40.927 33.5352L41.1054 33.8919C41.4175 33.7805 42.3094 32.5095 42.5993 32.2196C43.179 31.5953 43.6919 31.1494 44.227 30.5919C44.7175 30.1014 45.3865 29.5663 45.9885 29.1426C55.175 22.5203 65.8777 25.2629 76.6696 24.2595C77.4723 24.1926 82.1102 23.5014 82.2885 23.5237L82.3331 0C81.5081 0.066892 80.5048 0.289865 79.6575 0.401352C71.898 1.33784 66.6581 0.936488 59.1885 1.31554C45.5425 1.98446 42.3094 7.44731 41.0608 7.60339Z" fill="#3D3B40"/>
<path fill-rule="evenodd" clip-rule="evenodd" d="M40.927 33.5352C41.2169 33.6466 40.927 33.6912 41.1277 33.5352C41.1277 29.2095 41.1277 24.8615 41.1277 20.5135C41.1277 18.8635 41.2392 8.29459 41.0608 7.60337C40.7263 7.15742 38.2736 5.50742 37.5824 5.08377C29.7783 0.289846 20.2574 1.42701 11.2492 1.04795C9.33168 0.981063 7.39181 0.869576 5.51883 0.691198C4.60464 0.624306 3.69045 0.512819 2.79856 0.401332C1.90667 0.289846 0.88099 0.0668725 0.0336914 0.0222778V23.5237C0.256665 23.5014 4.80532 24.1926 5.60802 24.2595C15.4857 25.196 25.0959 22.8993 34.0371 27.671C38.2067 29.8784 40.5702 33.3345 40.927 33.5352Z" fill="#3D3B40"/>
<path fill-rule="evenodd" clip-rule="evenodd" d="M26.969 80.3819L26.9021 117.329C27.1474 117.552 27.2812 117.529 27.6825 117.685C34.5501 120.071 41.6852 120.651 48.8873 119.246C50.069 119.023 51.2285 118.733 52.3434 118.421L54.7515 117.663C55.1528 117.507 55.242 117.552 55.4427 117.329L55.3981 80.0251C55.3758 80.0474 55.3758 80.092 55.3758 80.092C55.242 80.4934 55.0859 81.8312 54.7738 82.9015C54.5285 83.7711 54.194 84.5738 53.815 85.3096C49.1102 94.4069 36.5791 95.8785 29.9568 87.5393C29.4886 86.9373 29.0426 86.2684 28.6413 85.488C28.017 84.3508 27.5487 83.0576 27.2812 81.742C27.2143 81.3407 27.2366 80.6271 26.969 80.3819Z" fill="#3D3B40"/>
</svg>
