<svg width="151" height="122" viewBox="0 0 151 122" fill="none" xmlns="http://www.w3.org/2000/svg">
<path d="M44.552 57.9019C42.2774 54.4603 40.5721 50.6201 39.5636 46.5117H72.4844L71.5476 57.9019H44.552ZM70.2076 74.2357C60.9436 72.8512 52.7941 68.1021 47.08 61.2911H71.2707L70.2076 74.2357ZM104.599 61.2911C98.7355 68.281 90.3097 73.0975 80.7415 74.338L79.6805 61.2911H104.599ZM112.117 46.5117C111.109 50.6201 109.403 54.4603 107.129 57.9019H79.4079L78.4824 46.5117H112.117ZM112.816 32.7397C113.046 34.3941 113.166 36.0838 113.166 37.7999C113.166 39.6075 113.035 41.3845 112.779 43.122H78.2055L77.3619 32.7397H112.816ZM107.301 17.9608C109.535 21.4062 111.205 25.2468 112.179 29.3505H77.0888L76.1617 17.9608H107.301ZM46.8631 14.5705C53.7079 6.25716 64.1453 0.947918 75.8403 0.947918C87.5359 0.947918 97.975 6.25716 104.818 14.5705H75.8869L75.4976 9.7706L75.1028 14.5705H46.8631ZM39.502 29.3505C40.4752 25.2468 42.1462 21.4062 44.3796 17.9608H74.8259L73.8892 29.3505H39.502ZM38.5144 37.7999C38.5144 36.0838 38.6328 34.3941 38.8631 32.7397H73.6128L72.7613 43.122H38.9016C38.6462 41.3845 38.5144 39.6075 38.5144 37.7999Z" fill="#3D3B40"/>
<path d="M76.9589 90.3066C77.2069 90.6558 77.5395 91.3965 77.1389 92.2004C76.7324 93.0097 75.8535 93.1773 75.8535 93.1773V99.1207C84.5878 89.7164 79.7327 84.7762 79.5549 83.3371C78.3547 73.6467 107.429 72.5841 107.429 72.5841L108.437 74.7688C86.0258 76.0413 83.2365 80.687 82.7566 81.2145C81.7808 82.2879 82.2805 85.0965 84.7522 83.3371C92.0806 78.128 109.947 77.2871 109.947 77.2871L111.124 79.6389C83.7651 82.9954 83.9215 85.8388 83.7437 86.1848C82.6361 88.3314 82.6559 91.3944 83.2478 91.0596C94.653 84.6 114.482 83.5015 114.482 83.5015L119.858 92.9069C82.2355 97.7775 76.0222 105.503 76.0222 105.503H75.0271C75.0271 105.503 68.8143 97.7775 31.1917 92.9069L36.5673 83.5015C36.5673 83.5015 56.3968 84.6 67.8015 91.0596C68.3939 91.3944 68.4131 88.3314 67.3061 86.1848C67.1283 85.8388 67.2847 82.9954 39.9254 79.6389L41.1026 77.2871C41.1026 77.2871 58.9692 78.128 66.296 83.3371C68.7715 85.0965 69.269 82.2879 68.2932 81.2145C67.8133 80.687 65.024 76.0413 42.6124 74.7688L43.621 72.5841C43.621 72.5841 72.693 73.6467 71.4949 83.3371C71.3171 84.7762 66.462 89.7164 75.1958 99.1207V93.1773C75.1958 93.1773 74.3281 93.0504 73.9104 92.2299C73.5098 91.441 73.7904 90.6365 74.0925 90.2793C74.0925 90.2793 74.5783 89.5847 75.5728 89.5847C75.5728 89.5847 76.4517 89.5932 76.9589 90.3066Z" fill="#3D3B40"/>
<path d="M36.4921 91.5116C62.0224 94.0309 69.6218 100.706 71.0078 101.509C73.3558 102.866 72.9783 101.112 72.854 100.661C72.56 99.5737 71.9735 98.396 71.6714 97.8143C68.9346 92.4638 65.6322 91.4264 65.6322 91.4264C56.395 87.5648 40.7741 86.0529 40.7741 86.0529C37.9205 85.7181 37.9205 86.2211 37.9205 86.2211L35.0637 91.2598L36.4921 91.5116Z" fill="#3D3B40"/>
<path d="M115.985 91.2599L113.128 86.2211C113.128 86.2211 113.128 85.7182 110.275 86.0529C110.275 86.0529 94.6555 87.5649 85.4183 91.4265C85.4183 91.4265 82.1142 92.4639 79.3769 97.8144C79.0769 98.396 78.4889 99.5738 78.1964 100.662C78.0727 101.112 77.693 102.867 80.041 101.509C81.4287 100.706 88.959 93.9544 114.487 91.4361L115.985 91.2599Z" fill="#3D3B40"/>
<path d="M147.674 117.455H144.436L145.469 114.39C145.524 114.228 145.582 114.056 145.644 113.873C145.708 113.689 145.765 113.512 145.82 113.342C145.872 113.172 145.921 113.015 145.961 112.872C146.002 112.728 146.035 112.607 146.062 112.509C146.089 112.607 146.122 112.731 146.161 112.879C146.201 113.026 146.25 113.183 146.304 113.348C146.356 113.515 146.412 113.687 146.47 113.866C146.528 114.045 146.586 114.211 146.638 114.363L147.674 117.455ZM149.904 120.801L146.638 111.393H145.483L142.218 120.801H143.292L144.113 118.408H147.996L148.803 120.801H149.904ZM140.659 120.801L137.38 114.928L140.135 111.393H138.992L136.265 114.914C136.165 115.04 136.052 115.188 135.921 115.358C135.791 115.528 135.659 115.703 135.526 115.881C135.392 116.061 135.268 116.229 135.156 116.386C135.044 116.542 134.957 116.665 134.895 116.756V115.492V111.393H133.845V120.801H134.895V118.099L136.681 115.787L139.463 120.801H140.659ZM131.17 116.957V111.393H130.123V116.984C130.123 118.005 129.949 118.762 129.599 119.255C129.25 119.748 128.667 119.994 127.853 119.994C126.248 119.994 125.446 118.982 125.446 116.957V111.393H124.397V116.984C124.397 118.292 124.682 119.28 125.251 119.947C125.82 120.615 126.668 120.948 127.799 120.948C128.935 120.948 129.783 120.61 130.338 119.934C130.894 119.257 131.17 118.265 131.17 116.957ZM120.729 119.363C120.433 119.686 119.932 119.846 119.225 119.846H116.833V116.218H119.171C119.789 116.218 120.278 116.379 120.634 116.701C120.995 117.024 121.172 117.481 121.172 118.072C121.172 118.611 121.025 119.04 120.729 119.363ZM120.354 114.829C120.102 115.119 119.686 115.265 119.103 115.265H116.833V112.348H119.184C119.713 112.348 120.102 112.479 120.354 112.741C120.605 113.006 120.729 113.351 120.729 113.779C120.729 114.188 120.605 114.54 120.354 114.829ZM122.061 117.038C121.953 116.765 121.813 116.535 121.643 116.353C121.472 116.168 121.281 116.021 121.066 115.908C120.851 115.796 120.634 115.713 120.419 115.659C120.824 115.516 121.151 115.29 121.401 114.982C121.652 114.673 121.778 114.259 121.778 113.741C121.778 113.338 121.714 112.989 121.589 112.694C121.463 112.4 121.287 112.156 121.058 111.964C120.83 111.772 120.563 111.628 120.253 111.535C119.943 111.441 119.601 111.393 119.225 111.393H115.783V120.801H119.158C120.153 120.801 120.911 120.569 121.436 120.108C121.958 119.646 122.222 118.948 122.222 118.014C122.222 117.638 122.168 117.312 122.061 117.038ZM111.879 115.407C111.544 115.696 111.027 115.842 110.329 115.842H107.828V112.348H110.462C111.09 112.348 111.568 112.492 111.895 112.782C112.222 113.073 112.385 113.508 112.385 114.088C112.385 114.677 112.216 115.116 111.879 115.407ZM113.203 112.872C113.052 112.541 112.845 112.265 112.586 112.045C112.326 111.826 112.017 111.663 111.658 111.555C111.301 111.447 110.915 111.393 110.503 111.393H106.781V120.801H107.828V116.796H110.06L112.075 120.801H113.284L111.215 116.715C111.887 116.571 112.425 116.276 112.828 115.828C113.23 115.379 113.434 114.788 113.434 114.054C113.434 113.597 113.356 113.203 113.203 112.872ZM104.51 120.801V119.846H99.6725V116.258H102.36V115.303H99.6725V112.348H104.309V111.393H98.6238V120.801H104.51ZM96.4595 112.348V111.393H89.874V112.348H92.6424V120.801H93.6916V112.348H96.4595ZM84.1095 117.4C84.0206 117.131 83.8696 116.886 83.6607 116.661C83.4497 116.438 83.169 116.232 82.8203 116.043C82.4701 115.855 82.0368 115.666 81.5157 115.479C81.0417 115.309 80.6582 115.152 80.3679 115.008C80.0755 114.865 79.8511 114.719 79.6882 114.572C79.5276 114.423 79.4194 114.271 79.3653 114.115C79.3128 113.958 79.286 113.782 79.286 113.584C79.286 113.396 79.3187 113.218 79.3867 113.053C79.4542 112.887 79.5608 112.741 79.7081 112.615C79.857 112.491 80.0466 112.39 80.2806 112.314C80.513 112.237 80.7899 112.2 81.1129 112.2C81.5874 112.2 81.9977 112.274 82.3426 112.422C82.687 112.569 83.0314 112.787 83.3704 113.073L84.042 112.254C83.6489 111.94 83.2311 111.693 82.7855 111.514C82.3426 111.335 81.8081 111.245 81.1809 111.245C80.7417 111.245 80.3406 111.299 79.9769 111.407C79.6149 111.514 79.3053 111.674 79.0498 111.884C78.7944 112.095 78.5946 112.348 78.4516 112.643C78.3086 112.939 78.2368 113.275 78.2368 113.65C78.2368 113.992 78.285 114.292 78.3782 114.551C78.473 114.812 78.624 115.046 78.8351 115.257C79.0461 115.467 79.3224 115.664 79.669 115.848C80.0139 116.032 80.4413 116.214 80.9506 116.393C81.3823 116.545 81.7401 116.695 82.0266 116.843C82.3131 116.99 82.5434 117.14 82.7197 117.293C82.8943 117.445 83.0158 117.611 83.0876 117.791C83.161 117.97 83.1958 118.166 83.1958 118.381C83.1958 118.883 83.0142 119.277 82.6522 119.565C82.2901 119.851 81.7947 119.994 81.1675 119.994C80.6834 119.994 80.2345 119.892 79.8221 119.686C79.4119 119.48 79.0268 119.206 78.6664 118.865L77.9674 119.645C78.345 120.021 78.804 120.332 79.346 120.578C79.888 120.825 80.482 120.948 81.1268 120.948C81.6206 120.948 82.0577 120.881 82.4428 120.747C82.8284 120.612 83.1556 120.429 83.4245 120.196C83.6933 119.962 83.8969 119.686 84.0361 119.363C84.1738 119.04 84.245 118.696 84.245 118.328C84.245 117.979 84.1989 117.67 84.1095 117.4ZM74.1524 117.455H70.9132L71.948 114.39C72.0015 114.228 72.0605 114.056 72.1231 113.873C72.1852 113.689 72.2431 113.512 72.2977 113.342C72.3507 113.172 72.3984 113.015 72.4386 112.872C72.4787 112.728 72.5125 112.607 72.5393 112.509C72.5655 112.607 72.5992 112.731 72.64 112.879C72.6807 113.026 72.7273 113.183 72.7803 113.348C72.8354 113.515 72.8906 113.687 72.9501 113.866C73.0063 114.045 73.0631 114.211 73.1161 114.363L74.1524 117.455ZM76.3821 120.801L73.1161 111.393H71.9608L68.6948 120.801H69.7714L70.5903 118.408H74.4738L75.2809 120.801H76.3821ZM68.0779 112.348V111.393H61.4923V112.348H64.2602V120.801H65.3094V112.348H68.0779ZM59.2616 111.393H58.2135V120.801H59.2616V111.393ZM55.5671 117.4C55.4761 117.131 55.3272 116.886 55.1162 116.661C54.9052 116.438 54.6267 116.232 54.2764 116.043C53.9256 115.855 53.4923 115.666 52.9733 115.479C52.4972 115.309 52.1148 115.152 51.8234 115.008C51.5315 114.865 51.306 114.719 51.1459 114.572C50.9836 114.423 50.876 114.271 50.8229 114.115C50.7688 113.958 50.7415 113.782 50.7415 113.584C50.7415 113.396 50.7763 113.218 50.8433 113.053C50.9097 112.887 51.0174 112.741 51.1652 112.615C51.3125 112.491 51.5031 112.39 51.7366 112.314C51.9686 112.237 52.2465 112.2 52.57 112.2C53.0451 112.2 53.4532 112.274 53.8002 112.422C54.1436 112.569 54.4863 112.787 54.828 113.073L55.4997 112.254C55.1044 111.94 54.6866 111.693 54.2432 111.514C53.8002 111.335 53.2636 111.245 52.6364 111.245C52.1983 111.245 51.7966 111.299 51.4346 111.407C51.0704 111.514 50.7619 111.674 50.5075 111.884C50.252 112.095 50.0522 112.348 49.9092 112.643C49.7652 112.939 49.6934 113.275 49.6934 113.65C49.6934 113.992 49.7405 114.292 49.8359 114.551C49.9285 114.812 50.0817 115.046 50.2927 115.257C50.5016 115.467 50.7801 115.664 51.125 115.848C51.4694 116.032 51.8973 116.214 52.4083 116.393C52.8378 116.545 53.1972 116.695 53.4832 116.843C53.7697 116.99 54.0011 117.14 54.1757 117.293C54.3508 117.445 54.4735 117.611 54.5452 117.791C54.617 117.97 54.6529 118.166 54.6529 118.381C54.6529 118.883 54.4719 119.277 54.1077 119.565C53.7446 119.851 53.2502 119.994 52.623 119.994C52.1394 119.994 51.6922 119.892 51.2798 119.686C50.8674 119.48 50.4823 119.206 50.124 118.865L49.4251 119.645C49.8016 120.021 50.2606 120.332 50.8026 120.578C51.3446 120.825 51.9375 120.948 52.5823 120.948C53.0761 120.948 53.5153 120.881 53.8999 120.747C54.286 120.612 54.6122 120.429 54.8811 120.196C55.1494 119.962 55.3534 119.686 55.4916 119.363C55.6309 119.04 55.701 118.696 55.701 118.328C55.701 117.979 55.656 117.67 55.5671 117.4ZM46.0182 115.407C45.6824 115.696 45.165 115.842 44.4661 115.842H41.9671V112.348H44.6005C45.2277 112.348 45.7049 112.492 46.0321 112.782C46.3588 113.073 46.5217 113.508 46.5217 114.088C46.5217 114.677 46.3551 115.116 46.0182 115.407ZM47.3416 112.872C47.1895 112.541 46.9844 112.265 46.7241 112.045C46.4638 111.826 46.1537 111.663 45.797 111.555C45.4376 111.447 45.0536 111.393 44.6412 111.393H40.9178V120.801H41.9671V116.796H44.1967L46.2132 120.801H47.423L45.3536 116.715C46.0262 116.571 46.5624 116.276 46.9662 115.828C47.3684 115.379 47.5709 114.788 47.5709 114.054C47.5709 113.597 47.4943 113.203 47.3416 112.872ZM38.6475 120.801V119.846H33.8101V116.258H36.4966V115.303H33.8101V112.348H38.4461V111.393H32.7609V120.801H38.6475ZM30.5446 111.393H29.4681L27.3585 117.803C27.3135 117.938 27.2626 118.096 27.2053 118.281C27.1464 118.464 27.0875 118.645 27.0291 118.825C26.9712 119.004 26.9187 119.172 26.8743 119.329C26.8298 119.486 26.795 119.604 26.7677 119.686C26.7409 119.604 26.7061 119.488 26.6595 119.335C26.6151 119.183 26.5658 119.019 26.5122 118.845C26.4581 118.671 26.4019 118.493 26.3441 118.314C26.2857 118.135 26.2348 117.974 26.1904 117.83L24.0935 111.393H22.9913L26.1904 120.801H27.3456L30.5446 111.393ZM20.707 111.393H19.6589V120.801H20.707V111.393ZM16.8637 120.801V111.393H15.8429V118.49V119.134C15.8155 119.072 15.7732 118.991 15.7149 118.892C15.657 118.793 15.597 118.688 15.5333 118.576C15.4712 118.464 15.408 118.352 15.3453 118.241C15.2826 118.129 15.2253 118.033 15.1702 117.951L11.0981 111.393H10.0773V120.801H11.0847V113.826V113.181C11.112 113.244 11.1544 113.324 11.2127 113.423C11.2706 113.52 11.3316 113.627 11.3943 113.74C11.4564 113.851 11.5202 113.963 11.5823 114.074C11.6455 114.186 11.7033 114.283 11.7564 114.363L15.8691 120.801H16.8637ZM7.40312 116.957V111.393H6.35392V116.984C6.35392 118.005 6.17985 118.762 5.83118 119.255C5.48091 119.748 4.8982 119.994 4.08357 119.994C2.48057 119.994 1.67934 118.982 1.67934 116.957V111.393H0.630127V116.984C0.630127 118.292 0.914535 119.28 1.48386 119.947C2.05265 120.615 2.90154 120.948 4.03109 120.948C5.1676 120.948 6.01542 120.61 6.56975 119.934C7.12623 119.257 7.40312 118.265 7.40312 116.957Z" fill="#3D3B40"/>
<path d="M147.674 117.455H144.436L145.469 114.39C145.524 114.228 145.582 114.056 145.644 113.873C145.708 113.689 145.765 113.512 145.82 113.342C145.872 113.172 145.921 113.015 145.961 112.872C146.002 112.728 146.035 112.607 146.062 112.509C146.089 112.607 146.122 112.731 146.161 112.879C146.201 113.026 146.25 113.183 146.304 113.348C146.356 113.515 146.412 113.687 146.47 113.866C146.528 114.045 146.586 114.211 146.638 114.363L147.674 117.455ZM149.904 120.801L146.638 111.393H145.483L142.218 120.801H143.292L144.113 118.408H147.996L148.803 120.801H149.904ZM140.659 120.801L137.38 114.928L140.135 111.393H138.992L136.265 114.914C136.165 115.04 136.052 115.188 135.921 115.358C135.791 115.528 135.659 115.703 135.526 115.881C135.392 116.061 135.268 116.229 135.156 116.386C135.044 116.542 134.957 116.665 134.895 116.756V115.492V111.393H133.845V120.801H134.895V118.099L136.681 115.787L139.463 120.801H140.659ZM131.17 116.957V111.393H130.123V116.984C130.123 118.005 129.949 118.762 129.599 119.255C129.25 119.748 128.667 119.994 127.853 119.994C126.248 119.994 125.446 118.982 125.446 116.957V111.393H124.397V116.984C124.397 118.292 124.682 119.28 125.251 119.947C125.82 120.615 126.668 120.948 127.799 120.948C128.935 120.948 129.783 120.61 130.338 119.934C130.894 119.257 131.17 118.265 131.17 116.957ZM120.729 119.363C120.433 119.686 119.932 119.846 119.225 119.846H116.833V116.218H119.171C119.789 116.218 120.278 116.379 120.634 116.701C120.995 117.024 121.172 117.481 121.172 118.072C121.172 118.611 121.025 119.04 120.729 119.363ZM120.354 114.829C120.102 115.119 119.686 115.265 119.103 115.265H116.833V112.348H119.184C119.713 112.348 120.102 112.479 120.354 112.741C120.605 113.006 120.729 113.351 120.729 113.779C120.729 114.188 120.605 114.54 120.354 114.829ZM122.061 117.038C121.953 116.765 121.813 116.535 121.643 116.353C121.472 116.168 121.281 116.021 121.066 115.908C120.851 115.796 120.634 115.713 120.419 115.659C120.824 115.516 121.151 115.29 121.401 114.982C121.652 114.673 121.778 114.259 121.778 113.741C121.778 113.338 121.714 112.989 121.589 112.694C121.463 112.4 121.287 112.156 121.058 111.964C120.83 111.772 120.563 111.628 120.253 111.535C119.943 111.441 119.601 111.393 119.225 111.393H115.783V120.801H119.158C120.153 120.801 120.911 120.569 121.436 120.108C121.958 119.646 122.222 118.948 122.222 118.014C122.222 117.638 122.168 117.312 122.061 117.038ZM111.879 115.407C111.544 115.696 111.027 115.842 110.329 115.842H107.828V112.348H110.462C111.09 112.348 111.568 112.492 111.895 112.782C112.222 113.073 112.385 113.508 112.385 114.088C112.385 114.677 112.216 115.116 111.879 115.407ZM113.203 112.872C113.052 112.541 112.845 112.265 112.586 112.045C112.326 111.826 112.017 111.663 111.658 111.555C111.301 111.447 110.915 111.393 110.503 111.393H106.781V120.801H107.828V116.796H110.06L112.075 120.801H113.284L111.215 116.715C111.887 116.571 112.425 116.276 112.828 115.828C113.23 115.379 113.434 114.788 113.434 114.054C113.434 113.597 113.356 113.203 113.203 112.872ZM104.51 120.801V119.846H99.6725V116.258H102.36V115.303H99.6725V112.348H104.309V111.393H98.6238V120.801H104.51ZM96.4595 112.348V111.393H89.874V112.348H92.6424V120.801H93.6916V112.348H96.4595ZM84.1095 117.4C84.0206 117.131 83.8696 116.886 83.6607 116.661C83.4497 116.438 83.169 116.232 82.8203 116.043C82.4701 115.855 82.0368 115.666 81.5157 115.479C81.0417 115.309 80.6582 115.152 80.3679 115.008C80.0755 114.865 79.8511 114.719 79.6882 114.572C79.5276 114.423 79.4194 114.271 79.3653 114.115C79.3128 113.958 79.286 113.782 79.286 113.584C79.286 113.396 79.3187 113.218 79.3867 113.053C79.4542 112.887 79.5608 112.741 79.7081 112.615C79.857 112.491 80.0466 112.39 80.2806 112.314C80.513 112.237 80.7899 112.2 81.1129 112.2C81.5874 112.2 81.9977 112.274 82.3426 112.422C82.687 112.569 83.0314 112.787 83.3704 113.073L84.042 112.254C83.6489 111.94 83.2311 111.693 82.7855 111.514C82.3426 111.335 81.8081 111.245 81.1809 111.245C80.7417 111.245 80.3406 111.299 79.9769 111.407C79.6149 111.514 79.3053 111.674 79.0498 111.884C78.7944 112.095 78.5946 112.348 78.4516 112.643C78.3086 112.939 78.2368 113.275 78.2368 113.65C78.2368 113.992 78.285 114.292 78.3782 114.551C78.473 114.812 78.624 115.046 78.8351 115.257C79.0461 115.467 79.3224 115.664 79.669 115.848C80.0139 116.032 80.4413 116.214 80.9506 116.393C81.3823 116.545 81.7401 116.695 82.0266 116.843C82.3131 116.99 82.5434 117.14 82.7197 117.293C82.8943 117.445 83.0158 117.611 83.0876 117.791C83.161 117.97 83.1958 118.166 83.1958 118.381C83.1958 118.883 83.0142 119.277 82.6522 119.565C82.2901 119.851 81.7947 119.994 81.1675 119.994C80.6834 119.994 80.2345 119.892 79.8221 119.686C79.4119 119.48 79.0268 119.206 78.6664 118.865L77.9674 119.645C78.345 120.021 78.804 120.332 79.346 120.578C79.888 120.825 80.482 120.948 81.1268 120.948C81.6206 120.948 82.0577 120.881 82.4428 120.747C82.8284 120.612 83.1556 120.429 83.4245 120.196C83.6933 119.962 83.8969 119.686 84.0361 119.363C84.1738 119.04 84.245 118.696 84.245 118.328C84.245 117.979 84.1989 117.67 84.1095 117.4ZM74.1524 117.455H70.9132L71.948 114.39C72.0015 114.228 72.0605 114.056 72.1231 113.873C72.1852 113.689 72.2431 113.512 72.2977 113.342C72.3507 113.172 72.3984 113.015 72.4386 112.872C72.4787 112.728 72.5125 112.607 72.5393 112.509C72.5655 112.607 72.5992 112.731 72.64 112.879C72.6807 113.026 72.7273 113.183 72.7803 113.348C72.8354 113.515 72.8906 113.687 72.9501 113.866C73.0063 114.045 73.0631 114.211 73.1161 114.363L74.1524 117.455ZM76.3821 120.801L73.1161 111.393H71.9608L68.6948 120.801H69.7714L70.5903 118.408H74.4738L75.2809 120.801H76.3821ZM68.0779 112.348V111.393H61.4923V112.348H64.2602V120.801H65.3094V112.348H68.0779ZM59.2616 111.393H58.2135V120.801H59.2616V111.393ZM55.5671 117.4C55.4761 117.131 55.3272 116.886 55.1162 116.661C54.9052 116.438 54.6267 116.232 54.2764 116.043C53.9256 115.855 53.4923 115.666 52.9733 115.479C52.4972 115.309 52.1148 115.152 51.8234 115.008C51.5315 114.865 51.306 114.719 51.1459 114.572C50.9836 114.423 50.876 114.271 50.8229 114.115C50.7688 113.958 50.7415 113.782 50.7415 113.584C50.7415 113.396 50.7763 113.218 50.8433 113.053C50.9097 112.887 51.0174 112.741 51.1652 112.615C51.3125 112.491 51.5031 112.39 51.7366 112.314C51.9686 112.237 52.2465 112.2 52.57 112.2C53.0451 112.2 53.4532 112.274 53.8002 112.422C54.1436 112.569 54.4863 112.787 54.828 113.073L55.4997 112.254C55.1044 111.94 54.6866 111.693 54.2432 111.514C53.8002 111.335 53.2636 111.245 52.6364 111.245C52.1983 111.245 51.7966 111.299 51.4346 111.407C51.0704 111.514 50.7619 111.674 50.5075 111.884C50.252 112.095 50.0522 112.348 49.9092 112.643C49.7652 112.939 49.6934 113.275 49.6934 113.65C49.6934 113.992 49.7405 114.292 49.8359 114.551C49.9285 114.812 50.0817 115.046 50.2927 115.257C50.5016 115.467 50.7801 115.664 51.125 115.848C51.4694 116.032 51.8973 116.214 52.4083 116.393C52.8378 116.545 53.1972 116.695 53.4832 116.843C53.7697 116.99 54.0011 117.14 54.1757 117.293C54.3508 117.445 54.4735 117.611 54.5452 117.791C54.617 117.97 54.6529 118.166 54.6529 118.381C54.6529 118.883 54.4719 119.277 54.1077 119.565C53.7446 119.851 53.2502 119.994 52.623 119.994C52.1394 119.994 51.6922 119.892 51.2798 119.686C50.8674 119.48 50.4823 119.206 50.124 118.865L49.4251 119.645C49.8016 120.021 50.2606 120.332 50.8026 120.578C51.3446 120.825 51.9375 120.948 52.5823 120.948C53.0761 120.948 53.5153 120.881 53.8999 120.747C54.286 120.612 54.6122 120.429 54.8811 120.196C55.1494 119.962 55.3534 119.686 55.4916 119.363C55.6309 119.04 55.701 118.696 55.701 118.328C55.701 117.979 55.656 117.67 55.5671 117.4ZM46.0182 115.407C45.6824 115.696 45.165 115.842 44.4661 115.842H41.9671V112.348H44.6005C45.2277 112.348 45.7049 112.492 46.0321 112.782C46.3588 113.073 46.5217 113.508 46.5217 114.088C46.5217 114.677 46.3551 115.116 46.0182 115.407ZM47.3416 112.872C47.1895 112.541 46.9844 112.265 46.7241 112.045C46.4638 111.826 46.1537 111.663 45.797 111.555C45.4376 111.447 45.0536 111.393 44.6412 111.393H40.9178V120.801H41.9671V116.796H44.1967L46.2132 120.801H47.423L45.3536 116.715C46.0262 116.571 46.5624 116.276 46.9662 115.828C47.3684 115.379 47.5709 114.788 47.5709 114.054C47.5709 113.597 47.4943 113.203 47.3416 112.872ZM38.6475 120.801V119.846H33.8101V116.258H36.4966V115.303H33.8101V112.348H38.4461V111.393H32.7609V120.801H38.6475ZM30.5446 111.393H29.4681L27.3585 117.803C27.3135 117.938 27.2626 118.096 27.2053 118.281C27.1464 118.464 27.0875 118.645 27.0291 118.825C26.9712 119.004 26.9187 119.172 26.8743 119.329C26.8298 119.486 26.795 119.604 26.7677 119.686C26.7409 119.604 26.7061 119.488 26.6595 119.335C26.6151 119.183 26.5658 119.019 26.5122 118.845C26.4581 118.671 26.4019 118.493 26.3441 118.314C26.2857 118.135 26.2348 117.974 26.1904 117.83L24.0935 111.393H22.9913L26.1904 120.801H27.3456L30.5446 111.393ZM20.707 111.393H19.6589V120.801H20.707V111.393ZM16.8637 120.801V111.393H15.8429V118.49V119.134C15.8155 119.072 15.7732 118.991 15.7149 118.892C15.657 118.793 15.597 118.688 15.5333 118.576C15.4712 118.464 15.408 118.352 15.3453 118.241C15.2826 118.129 15.2253 118.033 15.1702 117.951L11.0981 111.393H10.0773V120.801H11.0847V113.826V113.181C11.112 113.244 11.1544 113.324 11.2127 113.423C11.2706 113.52 11.3316 113.627 11.3943 113.74C11.4564 113.851 11.5202 113.963 11.5823 114.074C11.6455 114.186 11.7033 114.283 11.7564 114.363L15.8691 120.801H16.8637ZM7.40312 116.957V111.393H6.35392V116.984C6.35392 118.005 6.17985 118.762 5.83118 119.255C5.48091 119.748 4.8982 119.994 4.08357 119.994C2.48057 119.994 1.67934 118.982 1.67934 116.957V111.393H0.630127V116.984C0.630127 118.292 0.914535 119.28 1.48386 119.947C2.05265 120.615 2.90154 120.948 4.03109 120.948C5.1676 120.948 6.01542 120.61 6.56975 119.934C7.12623 119.257 7.40312 118.265 7.40312 116.957Z" fill="#3D3B40" stroke="#3D3B40" stroke-width="1.26049"/>
</svg>
